<?xml version="1.0" encoding="utf-8"?>
<!-- Generator: Adobe Illustrator 18.1.1, SVG Export Plug-In . SVG Version: 6.00 Build 0)  -->
<!DOCTYPE svg PUBLIC "-//W3C//DTD SVG 1.1//EN" "http://www.w3.org/Graphics/SVG/1.1/DTD/svg11.dtd">
<svg version="1.1" id="Layer_1" xmlns="http://www.w3.org/2000/svg" xmlns:xlink="http://www.w3.org/1999/xlink" x="0px" y="0px"
	 viewBox="0 0 205.7 130.1" enable-background="new 0 0 205.7 130.1" xml:space="preserve">
<g id="Layer_1_1_">
	<g id="Layer_1_2_">
		<g id="Map">
			<g id="ok">
				<polygon id="OK_Outline" fill="#3E7AAC" stroke="#1A171B" stroke-width="0.2" stroke-miterlimit="10" points="115.4,76.3 
					87.7,75.7 84.1,75.5 83.9,77.7 95.2,78.4 94.9,87.4 95.3,87.4 95.5,87.6 96.1,88.3 96.3,88.4 97.1,88.3 97.3,88.1 97.8,88.3 
					97.9,88.6 97.9,88.8 98.1,89.1 98.2,89.2 99.2,89.4 99.6,89.6 99.8,89.6 99.9,89.5 100.2,89.4 100.4,89.8 100.8,89.9 
					101.1,89.7 102.1,89.8 102.1,89.9 102.5,90.3 102.7,90.4 102.7,90.9 103.4,91 103.6,90.5 103.9,90.4 104.8,91.1 104.9,91.1 
					105.3,90.8 105.7,90.8 105.7,91 105.6,91.4 105.8,91.7 106,91.5 106,91.3 106.3,90.9 106.7,90.6 106.8,90.7 106.8,91 
					107.3,91.1 107.5,91.1 107.6,90.9 107.9,90.9 108,91 108,91.1 108.4,91.3 108.9,91.7 109.6,91.2 109.8,91.1 110.6,91 
					111.3,90.8 111.6,90.8 111.9,90.8 112.8,90.9 113.3,90.7 113.4,90.6 115.3,91.6 115.7,91.7 115.8,91.8 116,91.9 116.1,83.7 
					115.4,78.6 				"/>
				<text transform="matrix(1.0127 0 0 1 104.2988 83.3608)" font-family="'Verdana'" font-size="2.5">OK</text>
				
					<text id="NameRegion48" transform="matrix(1.0127 0 0 1 104.2988 83.3608)" fill="none" stroke="#000000" stroke-width="0.1" stroke-miterlimit="10" font-family="'Verdana'" font-size="2.5">OK</text>
			</g>
			<g id="ga">
				<polygon id="GA_Outline" fill="#3E7AAC" stroke="#1A171B" stroke-width="0.2" stroke-miterlimit="10" points="150,83.5 
					152.8,93.3 153,93.6 153.2,94.2 153.4,94.5 153.7,94.8 154,95 153.8,95.4 154.2,95.8 154.1,96 153.8,96.5 153.8,97.1 
					153.5,97.7 153.6,98.5 154,99.5 154,100.7 154.5,101.4 154.5,101.7 154.6,102 154.9,102.3 154.9,102.6 155.2,103 165.9,102.3 
					166.1,102.8 166.2,103.1 166.8,103.1 166.9,102.6 166.6,101.6 166.6,101.2 166.7,101 167,100.8 167.8,101.2 168.5,101.2 
					168.8,101.1 168.7,100.3 168.6,99.9 168.6,99.4 168.6,99 169.2,97.4 169.3,96.7 169.6,96.1 169.9,95.4 170.2,95.1 170.4,95 
					170.5,94.8 170.2,94.7 170.2,94.6 170,94.6 169.4,94.6 169.3,94.5 169.2,94.2 168.9,93.3 168.5,92.6 167.9,92.4 167.6,91.4 
					167.2,91 167,90.5 166.7,90.4 166,90.1 165.6,89.6 165.2,89.3 165.1,89 164.9,88.6 164.8,88.4 164.1,88.2 162.9,87.1 
					162.4,86.9 162.2,86.5 161.7,86.1 161.3,85.4 161,85 160.8,84.7 160.1,84.6 159,84.1 158.7,83.8 159.1,83 159.3,82.8 
					159.5,82.5 159.5,82.3 159.5,82.3 153.8,83.1 				"/>
				<text transform="matrix(1.0127 0 0 1 158.1289 94.4268)" font-family="'Verdana'" font-size="2.5">GA</text>
				
					<text id="NameRegion47" transform="matrix(1.0127 0 0 1 158.1289 94.4268)" fill="none" stroke="#000000" stroke-width="0.1" stroke-miterlimit="10" font-family="'Verdana'" font-size="2.5">GA</text>
			</g>
			<g id="va">
				<g id="VA_Outline">
					<polygon fill="#3E7AAC" stroke="#1A171B" stroke-width="0.2" stroke-miterlimit="10" points="184.7,70.7 175.3,72.4 
						165.5,74.1 165.3,74 164.9,74.1 163.8,74.2 163.9,74 162.9,74.2 162.9,74.3 156.7,75.1 156.9,74.8 158.2,74.2 158.4,73.9 
						159.1,73.4 159.2,73 159.3,72.8 159.6,72.6 159.7,72.2 160.1,71.9 162,70.3 162.1,69.9 162.2,70 162.1,70.4 162.7,70.9 
						163.5,71.2 163.8,71.2 164.3,70.9 164.3,70.6 164.6,70.5 164.9,70.7 165.1,70.8 165.4,70.8 166.3,70.4 166.5,69.8 166.6,69.8 
						166.8,70 167.5,69.4 167.8,69.5 168.4,68.7 168.3,68.4 168.3,67.8 168.9,66.7 169.7,63.6 169.9,63.6 170.3,63.9 170.4,64.1 
						170.6,64.3 171.1,64.2 171.4,63.7 171.7,62.6 172,62.1 172.4,62.3 172.7,61.6 173,61.5 173.3,61.2 173.5,60.6 173.7,60.4 
						173.7,60.3 173.6,60.1 173.7,59.2 173.7,59.1 173.9,58.9 175.6,60 175.8,60.1 175.9,60 176.1,59.1 176.4,59.1 176.7,59.2 
						177,59.3 176.8,59.7 177.2,60.1 177.9,60.1 178.3,60.4 178.7,60.6 179,61 179,61.2 178.5,62 178.2,62.8 178.3,63.3 178.8,63.3 
						179.3,63 179.7,63.5 179.9,63.6 180.1,63.6 180.4,63.9 180.5,63.9 180.8,63.8 180.9,63.8 181.8,64.2 182.4,64.4 182.7,64.8 
						182.7,65 182.5,65.1 182.6,65.7 182.5,65.8 182.3,65.9 182.3,66 182.9,66.3 183.2,66.8 183.1,67 183,67.1 182.5,67 182.4,67.2 
						182.6,67.4 182.7,67.4 182.7,67.6 182.4,67.7 182.3,67.7 182.2,67.8 182.4,67.9 182.9,68 183.3,68.1 183.4,68.3 182.9,68.8 
						182.7,68.8 182.2,68.6 182.2,68.8 182.5,69 182.9,69.3 183.3,69.1 183.7,68.8 184.1,68.8 184.6,68.8 184.7,68.9 185.1,70.2 
						184.8,70.5 184.7,70.5 					"/>
					<polygon fill="#3E7AAC" stroke="#1A171B" stroke-width="0.2" stroke-miterlimit="10" points="184.6,64 184.7,64 184.7,64.4 
						184.7,64.6 184.4,65 184.2,65.2 184.1,66 184.2,66.6 184.2,67.3 184.4,67.8 184.5,67.1 184.7,66.4 185.2,65.4 185.4,65 
						185.5,64.6 185.4,64 185.5,63.8 186,63.4 186.1,63.2 184.9,63.6 					"/>
				</g>
				<text transform="matrix(1.0127 0 0 1 174.0791 68.1987)" font-family="'Verdana'" font-size="2.5">VA</text>
				
					<text id="NameRegion46" transform="matrix(1.0127 0 0 1 174.0791 68.1987)" fill="none" stroke="#000000" stroke-width="0.1" stroke-miterlimit="10" font-family="'Verdana'" font-size="2.5">VA</text>
			</g>
			<g id="ny">
				<polygon id="NY_Outline" fill="#3E7AAC" stroke="#1A171B" stroke-width="0.2" stroke-miterlimit="10" points="184.5,47.6 
					187.6,48.6 187.8,49.1 187.6,49.3 187.4,49.5 187.4,49.8 187.4,50.3 187.2,50.4 187,50.5 186.8,51.1 186.8,51.3 186.8,51.3 
					187,51.2 187.1,51.1 187.5,50.6 187.8,50.7 188.5,50.7 188.7,50.5 189.3,50.3 189.9,50.1 190.2,49.9 190.6,49.5 192.3,48.4 
					192.8,48.1 193.1,47.8 193.4,47.7 193.6,47.5 194,47.2 194.2,47.1 194.4,46.7 194.4,46.5 194.4,46.5 194,46.8 193.6,46.9 
					193.2,47.1 192.9,47.3 192.8,47.6 192.4,47.8 192.3,47.7 192.4,47.4 192.7,47.1 193.1,46.5 193,46.4 192.7,46.7 192.5,47 
					192.2,47.3 191.3,47.8 190,48.4 189.1,48.9 188.7,49.1 188.3,49.6 188.1,49.4 188,49.1 188.2,48.6 188.5,48.4 188.1,48 
					188.7,47.4 188.7,47.2 188.5,46.9 188,43.4 187.9,43.3 187.9,40.1 187.5,39.4 187.3,38.6 187.3,38 187.1,36.8 186.7,36.2 
					186.5,36.2 186.5,36.4 186.4,36.4 186.3,36.2 186.4,35.6 185.8,34.3 185.8,33.8 186,33.3 185.8,32.4 185.3,31 185.3,30.9 
					185.1,30.6 185.2,30.4 184.9,30 184.9,30 180.5,31.1 180.4,30.9 180.2,31 179.9,31.2 178.8,32.3 177.8,33.7 177.6,34 
					177.7,34.2 177.5,34.8 177.3,35 176.2,36.1 176.1,36.3 176.2,36.8 176.3,36.8 176.6,36.8 176.9,36.9 176.9,37.2 176.7,37.4 
					176.8,37.8 177,38.2 177,38.8 176.3,39.1 175.2,40.2 174.5,40.5 172.7,41 172.1,40.8 171.5,40.6 170.6,40.8 169.7,40.9 
					168.6,41.3 168.2,41.7 168,42.2 168,42.6 168.7,43.4 168.8,43.5 168.9,43.8 168.7,44.1 168.5,44.3 168.2,45 166.8,46.4 
					166.2,46.8 166.5,48 181.6,45 181.9,45.2 182,45.5 182.1,45.6 182.2,45.6 182.3,45.7 182.6,45.8 183,46.7 183.2,47 183.3,47.1 
					183.3,47.2 184.2,47.3 				"/>
				<text transform="matrix(1.0127 0 0 1 179.5137 41.7388)" font-family="'Verdana'" font-size="2.5">NY</text>
				
					<text id="NameRegion45" transform="matrix(1.0127 0 0 1 179.5137 41.7388)" fill="none" stroke="#000000" stroke-width="0.1" stroke-miterlimit="10" font-family="'Verdana'" font-size="2.5">NY</text>
			</g>
			<g id="fl_1_">
				<polygon id="FL_Outline" fill="#3E7AAC" stroke="#1A171B" stroke-width="0.2" stroke-miterlimit="10" points="154.5,101.7 
					144.1,102.8 144.1,102.9 144.2,103.1 144.1,103.2 144.1,103.5 144.4,103.9 144.6,104.1 144.7,104.1 145,104.4 145.1,104.5 
					144.9,104.9 144.9,105.1 145.1,105.2 145.2,105.3 145.2,105.4 145,105.6 145,105.9 145.1,105.9 145.7,105.7 145.9,105.6 
					146.1,105.1 146.2,104.9 146.4,104.9 146.6,104.9 146.8,104.9 146.9,104.9 146.9,105.1 146.5,105.4 146.6,105.5 146.9,105.3 
					147.4,105.3 149.3,104.7 149.5,104.7 149.5,104.8 149.2,105.1 149.3,105.2 150.1,105.2 150.9,105.5 151.8,106 152,106 
					151.9,105.7 152.1,105.6 152.3,105.8 152.8,106 152.9,106 152.9,106.1 152.8,106.2 152.8,106.4 153.9,107.1 153.9,107.4 
					153.9,107.7 153.8,107.9 153.7,107.7 153.6,107.5 153.5,107.7 153.6,107.9 153.8,108 155.2,107.6 155.3,107.4 155.8,107.4 
					157,106.4 157.8,106.4 157.8,106.3 157.7,106.1 157.9,105.6 159.1,105.4 161,106.4 161,106.6 161.5,107 161.9,107.6 
					163.1,108.4 163.3,108.8 163.6,109.1 164.5,109 165.2,110 165.4,110.2 165.3,110.5 165.6,111.5 165.5,112.7 165.2,113.9 
					165.2,114.8 165.4,115.2 166.1,115.6 166.3,115.2 166.1,115.1 165.9,114.4 165.9,114.3 166.3,114.2 166.6,114.8 166.8,114.8 
					166.9,114.5 167,114.4 167.2,114.6 167.1,114.9 166.9,115.2 166.8,115.5 166.5,116.3 166.3,116.4 166.3,116.7 166.5,117 
					166.9,117.4 167.6,118.8 168.6,119.4 168.7,119.4 168.7,119 169,119 169.2,119.6 169.3,119.9 169.6,120.7 170,120.9 
					170.4,121.1 171.2,123 171.4,123.1 172.4,123.4 172.8,123.6 173.9,124.9 174.4,125.3 174.5,125.3 174.8,125.4 174.9,125.7 
					174.7,125.8 174.5,125.7 174.4,125.7 174.2,125.8 174.2,125.9 174.4,126.1 174.9,126.2 175.2,126 175.6,126 177.3,125.4 
					177.6,124.7 177.7,124.6 177.4,123.7 177.5,123.3 177.8,122.5 178.1,122.6 177.7,121 177.9,120.2 177.8,118.7 177.4,117.5 
					177.2,117.1 176.1,115.6 175.4,114 174.5,112.8 174.5,112.7 174.5,112.4 174.2,111.7 174.2,111.5 174.5,111.1 174.5,110.9 
					173.3,109.3 172.7,108.7 172.2,108.4 172.1,108.2 171.4,107.2 170.4,105.5 170.1,104.5 169.5,103.1 169.5,102.8 169.2,102.6 
					169.1,102.5 169,101.4 168.8,101.1 168.5,101.2 167.8,101.2 167,100.8 166.7,101 166.6,101.2 166.6,101.6 166.9,102.6 
					166.8,103.1 166.2,103.1 166.1,102.8 165.9,102.3 155.2,103 154.9,102.6 154.9,102.3 154.6,102 				"/>
				<text transform="matrix(1.0127 0 0 1 168.3066 112.6558)" font-family="'Verdana'" font-size="2.5">FL</text>
				
					<text id="NameRegion44" transform="matrix(1.0127 0 0 1 168.3066 112.6558)" fill="none" stroke="#000000" stroke-width="0.1" stroke-miterlimit="10" font-family="'Verdana'" font-size="2.5">FL</text>
			</g>
			<g id="nm">
				<polygon id="NM_Outline" fill="#3E7AAC" stroke="#1A171B" stroke-width="0.2" stroke-miterlimit="10" points="61.7,73 
					57.9,99.2 57.9,99.3 61.3,99.6 61.6,97.6 68.1,98.4 68,98.3 67.9,98 68,97.7 68,97.6 67.9,97.4 67.9,97.4 82,98.7 83.7,77.7 
					83.9,77.7 84.1,75.5 				"/>
				<text transform="matrix(1.0127 0 0 1 70.313 87.3291)" font-family="'Verdana'" font-size="2.5">NM</text>
				
					<text id="NameRegion43" transform="matrix(1.0127 0 0 1 70.313 87.3291)" fill="none" stroke="#000000" stroke-width="0.1" stroke-miterlimit="10" font-family="'Verdana'" font-size="2.5">NM</text>
			</g>
			<g id="md">
				<polygon id="MD_Outine" fill="#3E7AAC" stroke="#1A171B" stroke-width="0.2" stroke-miterlimit="10" points="182.3,55.9 
					179.2,56.4 169.3,58.3 169.9,60.7 170.1,60.4 170.3,60.3 171,59.4 171.4,59.3 171.6,58.9 171.9,58.8 172.1,58.3 172.3,58.5 
					172.7,58.7 173.2,58.5 173.3,58.2 174.5,57.8 174.8,57.9 175.1,57.9 175.3,57.8 175.5,58.2 175.7,58.3 176.1,59.1 176.1,59.1 
					176.4,59.1 176.7,59.2 177,59.3 176.8,59.7 177.2,60.1 177.9,60.1 178.3,60.4 178.7,60.6 179,61 179,61.2 178.5,62 178.2,62.8 
					178.3,63.3 178.8,63.3 179.3,63 179.7,63.5 179.9,63.6 179.9,63.4 180.4,63.3 180.9,63.4 181.7,63.6 182.1,63.8 182.2,63.8 
					182.3,63.6 182.1,63.4 181.8,62.9 181.4,62.8 181.4,62.7 181.4,62.6 181.5,62.6 181.7,62.4 181.3,62.3 181,61.8 180.7,61 
					180.7,60.7 180.6,60.2 180.7,59.4 180.7,59.1 180.5,59 180.5,58.8 180.6,58.6 180.7,58.4 180.8,58.1 181.4,57.6 181.5,57.5 
					181.7,56.9 182.1,56.9 182.3,57.1 182,57.6 181.8,58 181.5,58.3 181.4,58.7 181.5,59.1 181.8,59.2 182,60.1 182,60.2 
					181.5,60.5 181.6,60.7 182,60.8 182.1,61 182,61.4 182.1,61.6 182.1,61.9 182.3,62.4 182.8,62.7 183,62.7 183.2,62.6 
					183.5,62.6 183.7,62.7 183.6,63 183.9,63.5 183.9,63.6 184.1,63.9 184.5,63.9 184.6,64 184.9,63.6 186.1,63.2 186.1,63 
					186.2,62.7 186.5,61.2 186.4,61.1 184.1,61.6 				"/>
				<text transform="matrix(1.0127 0 0 1 176.458 58.9858)" font-family="'Verdana'" font-size="2.5">MD</text>
				
					<text id="NameRegion42" transform="matrix(1.0127 0 0 1 176.458 58.9858)" fill="none" stroke="#000000" stroke-width="0.1" stroke-miterlimit="10" font-family="'Verdana'" font-size="2.5">MD</text>
			</g>
			<g id="tx">
				<polygon id="TX_Outline" fill="#3E7AAC" stroke="#1A171B" stroke-width="0.2" stroke-miterlimit="10" points="116,91.9 
					115.8,91.8 115.7,91.7 115.3,91.6 113.4,90.6 113.3,90.7 112.8,90.9 111.9,90.8 111.6,90.8 111.3,90.8 110.6,91 109.8,91.1 
					109.6,91.2 108.9,91.7 108.4,91.3 108,91.1 108,91 107.9,90.9 107.6,90.9 107.5,91.1 107.3,91.1 106.8,91 106.8,90.7 
					106.7,90.6 106.3,90.9 106,91.3 106,91.5 105.8,91.7 105.6,91.4 105.7,91 105.7,90.8 105.3,90.8 104.9,91.1 104.8,91.1 
					103.9,90.4 103.6,90.5 103.4,91 102.7,90.9 102.7,90.4 102.5,90.3 102.1,89.9 102.1,89.8 101.1,89.7 100.8,89.9 100.4,89.8 
					100.2,89.4 99.9,89.5 99.8,89.6 99.6,89.6 99.2,89.4 98.2,89.2 98.1,89.1 97.9,88.8 97.9,88.6 97.8,88.3 97.3,88.1 97.1,88.3 
					96.3,88.4 96.1,88.3 95.5,87.6 95.3,87.4 94.9,87.4 95.2,78.4 83.9,77.7 83.7,77.7 82,98.7 67.9,97.4 67.9,97.4 68,97.6 
					68,97.7 67.9,98 68,98.3 68.1,98.4 68.8,98.9 69,99.3 69.3,100 70,100.5 72.2,103.1 74.1,104.5 74.2,104.8 74.3,105.1 
					74.3,105.5 74.4,105.7 74.8,106.4 74.8,107.9 74.9,108.3 75.6,109.3 78.3,111.3 80.2,112.5 80.7,112.6 81.1,112.4 81.5,111.9 
					81.8,111.6 82.6,109.8 83,109.2 83.3,109.1 84,109.3 84.1,109.2 84.2,108.9 84.4,108.7 84.8,108.9 85.1,109.1 86.2,109.2 
					86.5,109.4 87.1,109.6 87.5,109.4 88.3,109.9 88.5,110.4 88.7,110.4 88.8,110.6 88.9,110.7 89.3,110.9 89.7,111.5 90.6,112.2 
					91,112.8 91,113.1 92.2,116 92.4,116.6 93.7,118.1 93.8,118.4 94.8,119.4 95,119.6 95.4,120 95.5,120.3 95.4,121.2 95.7,121.6 
					95.8,122.7 96.1,123.1 97.1,124.9 97.2,125.4 97.8,125.5 98.6,125.9 99.4,126.2 100.8,127 102.5,127.2 102.9,127.2 103.9,127.9 
					104.3,128.1 104.8,127.5 105.2,127.6 105.3,127.5 105.3,127.2 104.9,127.1 105,127 104.6,126.5 104,124.3 103.7,123.4 
					104.2,122.1 104.1,121.7 104,121.6 103.9,121.6 103.8,121.5 103.8,121.4 103.9,121.3 104.5,121 104.8,119.8 104.5,119.6 
					104.4,119.1 104.7,118.7 105.1,119 105.8,118.5 106,117.9 105.6,117.6 105.8,117.3 105.9,117.4 106.1,117.5 106.3,117.3 
					106.5,117.4 106.7,117.4 106.9,117.3 106.9,117.2 106.9,116.7 107,116.5 107.2,116.5 107.3,116.5 107.4,116.6 108.4,116.3 
					108.5,116.3 108.6,116.1 108.5,116 108,115.7 108,115.5 108.9,115.2 109.1,115.1 109.3,115 109.4,115.1 109.3,115.2 
					109.4,115.4 109.6,115.4 109.8,115.3 111.2,114.8 113.6,113.3 113.7,112.7 114.8,111.8 114.8,111.6 114.4,111 114.5,110.5 
					115.2,110.2 115.4,110.2 115.2,110.8 115.3,110.9 116.2,110.8 116.3,111.1 118,110.3 119,110.2 119,110.2 119,110.1 
					118.8,109.9 118.7,109.6 118.9,109.5 119,109.2 119.3,108.9 119.6,107.9 119.3,107.4 119.3,107.1 119.4,106.9 119.4,106.6 
					119.5,106 119.8,105.8 120,105.3 120.1,104.5 120.1,104 120,103.3 119.7,102.8 119.5,102.6 119.6,102.4 119.4,102.2 
					119.2,101.7 119,101.5 118.9,101.4 119,100.9 118.7,100.2 118.2,99.7 118,99.4 117.9,94.8 117.9,92.3 117.3,92.1 116.8,92.4 
					116.6,92.3 				"/>
				<text transform="matrix(1.0127 0 0 1 97.1743 103.1226)" font-family="'Verdana'" font-size="2.5">TX</text>
				
					<text id="NameRegion41" transform="matrix(1.0127 0 0 1 97.1743 103.1226)" fill="none" stroke="#000000" stroke-width="0.1" stroke-miterlimit="10" font-family="'Verdana'" font-size="2.5">TX</text>
			</g>
			<g id="ks">
				<polygon id="KS_Outline" fill="#3E7AAC" stroke="#1A171B" stroke-width="0.2" stroke-miterlimit="10" points="88.5,61.6 
					112.6,62.2 114.1,63.3 113.6,63.9 113.5,64.5 113.8,64.8 114.2,65 114.4,65.8 114.8,66 115.1,66.1 115.3,66.2 115.4,76.3 
					87.7,75.7 				"/>
				<text transform="matrix(1.0127 0 0 1 100.0112 69.6289)" font-family="'Verdana'" font-size="2.5">KS</text>
				
					<text id="NameRegion40" transform="matrix(1.0127 0 0 1 100.0112 69.6289)" fill="none" stroke="#000000" stroke-width="0.1" stroke-miterlimit="10" font-family="'Verdana'" font-size="2.5">KS</text>
			</g>
			<g id="ne">
				<polygon id="NE_Outline" fill="#3E7AAC" stroke="#1A171B" stroke-width="0.2" stroke-miterlimit="10" points="81.8,56.4 
					82.6,47.1 101.6,48 102.1,48.8 102.7,48.8 103.2,48.7 103.6,48.9 103.9,49.5 104.3,49.6 104.9,49.5 105.3,49.2 106,49.2 
					106.3,49.3 107.8,50.3 108.6,50.8 108.6,51.2 109.1,51.5 109.1,51.9 108.9,52.5 109.2,52.8 109.5,53.6 109.9,54 109.7,54.3 
					109.9,54.7 110.3,55.1 110.5,55.5 110.3,55.9 110.2,56.6 110.7,56.8 110.9,57.2 110.6,57.6 110.7,57.9 111,58.3 110.9,58.7 
					111,59.2 111.1,59.4 111.4,59.8 111.7,60.2 111.9,60.8 112.4,61.4 112.6,61.5 112.5,62 112.6,62.2 88.5,61.6 88.8,56.9 				"/>
				<text transform="matrix(1.0127 0 0 1 96.6396 55.019)" font-family="'Verdana'" font-size="2.5">NE</text>
				
					<text id="NameRegion39" transform="matrix(1.0127 0 0 1 96.6396 55.019)" fill="none" stroke="#000000" stroke-width="0.1" stroke-miterlimit="10" font-family="'Verdana'" font-size="2.5">NE</text>
			</g>
			<g id="sd">
				<polygon id="SD_Outline" fill="#3E7AAC" stroke="#1A171B" stroke-width="0.2" stroke-miterlimit="10" points="82.6,47.1 
					83.3,37.8 83.7,33.3 108.2,34.4 108.3,34.8 108.1,35.3 107.5,35.9 107.5,36.3 108.7,37.4 108.7,45.9 108.5,45.8 108.2,45.9 
					108.3,46.2 108.5,46.4 108.3,46.9 108.5,47.2 108.7,47.9 108.4,48.1 108.5,48.5 108.1,49.3 108.5,50.2 108.6,50.7 108.6,50.8 
					107.8,50.3 106.3,49.3 106,49.2 105.3,49.2 104.9,49.5 104.3,49.6 103.9,49.5 103.6,48.9 103.2,48.7 102.7,48.8 102.1,48.8 
					101.6,48 				"/>
				<text transform="matrix(1.0127 0 0 1 93.9873 40.6475)" font-family="'Verdana'" font-size="2.5">SD</text>
				
					<text id="NameRegion38" transform="matrix(1.0127 0 0 1 93.9873 40.6475)" fill="none" stroke="#000000" stroke-width="0.1" stroke-miterlimit="10" font-family="'Verdana'" font-size="2.5">SD</text>
			</g>
			<g id="nd">
				<polygon id="ND_Outline" fill="#3E7AAC" stroke="#1A171B" stroke-width="0.2" stroke-miterlimit="10" points="83.7,33.3 
					84.9,19.3 91.3,19.7 95.8,20 106.3,20.3 106.4,20.7 106.7,21.8 106.6,22.1 106.5,22.9 106.5,24.2 106.8,25.7 107.2,26.1 
					107.5,27.4 107.5,29.8 107.7,30.2 107.7,31.1 107.7,31.4 108.3,33.1 108.2,33.7 108.2,34.4 				"/>
				<text transform="matrix(1.0127 0 0 1 93.9868 26.8926)" font-family="'Verdana'" font-size="2.5">ND</text>
				
					<text id="NameRegion37" transform="matrix(1.0127 0 0 1 93.9868 26.8926)" fill="none" stroke="#000000" stroke-width="0.1" stroke-miterlimit="10" font-family="'Verdana'" font-size="2.5">ND</text>
			</g>
			<g id="mt">
				<polygon id="MT_Outline" fill="#3E7AAC" stroke="#000000" stroke-width="0.2" stroke-miterlimit="10" points="83.3,37.8 
					60.1,35 59.8,37.4 59.8,37.4 59.4,37.1 59.3,36.5 58.8,36 58.4,36.4 58.4,36.7 57.5,36.7 57.3,36.8 56.9,36.6 56,36.5 
					55.9,36.4 55.6,36.4 55.3,36.7 55,36.6 54.2,36.4 54,36.5 53.8,36.9 53.3,36.7 53.1,36.2 53.1,36 53.2,35.4 53.2,35.1 
					52.8,34.6 52.4,34.6 52.1,34.1 52.3,33.7 52.3,33.4 51.9,32.9 51.7,32.2 51.7,31.3 51.8,30.7 51.6,30.6 51.5,30.5 51.4,30.1 
					51.2,30.1 51.1,30.1 50.1,30.9 49.9,31 49.2,30.4 49.4,30 49.4,29.7 49.4,29.3 49.9,28.9 50,28.5 49.9,28.5 49.9,27.7 
					50.2,27.5 50.1,27.3 50.9,25.8 50.7,25.5 50,25.4 49.9,25 49.4,25 49.1,24.4 49,23.8 48.5,22.6 47.7,21.8 47.3,21.3 47.1,21.1 
					47.3,20.9 47.4,20.4 47.3,19.6 46.7,18.4 47.5,14 51,14.6 60.4,16.1 70,17.7 84.9,19.3 83.7,33.3 				"/>
				<text transform="matrix(1.0127 0 0 1 64.6157 25.9102)" font-family="'Verdana'" font-size="2.5">MT</text>
				
					<text id="NameRegion36" transform="matrix(1.0127 0 0 1 64.6157 25.9102)" fill="none" stroke="#000000" stroke-width="0.1" stroke-miterlimit="10" font-family="'Verdana'" font-size="2.5">MT</text>
			</g>
			<g id="wy">
				<polygon id="WY_Outline" fill="#3E7AAC" stroke="#1A171B" stroke-width="0.2" stroke-miterlimit="10" points="81.8,56.4 
					82.6,47.1 83.3,37.8 60.1,35 59.8,37.4 58.1,48.9 58,48.9 57.3,53.4 64.2,54.5 				"/>
				<text transform="matrix(1.0127 0 0 1 69.0488 46.2866)" font-family="'Verdana'" font-size="2.5">WY</text>
				
					<text id="NameRegion35" transform="matrix(1.0127 0 0 1 69.0488 46.2866)" fill="none" stroke="#000000" stroke-width="0.1" stroke-miterlimit="10" font-family="'Verdana'" font-size="2.5">WY</text>
			</g>
			<g id="co">
				<polygon id="CO_Outline" fill="#3E7AAC" stroke="#000000" stroke-width="0.2" stroke-miterlimit="10" points="61.7,73 
					64.2,54.5 81.8,56.4 88.8,56.9 88.5,61.6 87.7,75.7 84.1,75.5 				"/>
				<text transform="matrix(1.0127 0 0 1 73.4087 66.9639)" font-family="'Verdana'" font-size="2.5">CO</text>
				
					<text id="NameRegion34" transform="matrix(1.0127 0 0 1 73.4087 66.9639)" fill="none" stroke="#000000" stroke-width="0.1" stroke-miterlimit="10" font-family="'Verdana'" font-size="2.5">CO</text>
			</g>
			<g id="ut">
				<polygon id="UT_Outline" fill="#3E7AAC" stroke="#1A171B" stroke-width="0.2" stroke-miterlimit="10" points="61.7,73 
					64.2,54.5 57.3,53.4 58,48.9 47.7,47.1 43.1,70.1 43.1,70.1 				"/>
				<text transform="matrix(1.0127 0 0 1 51.8984 62.1519)" font-family="'Verdana'" font-size="2.5">UT</text>
				
					<text id="NameRegion33" transform="matrix(1.0127 0 0 1 51.8984 62.1519)" fill="none" stroke="#000000" stroke-width="0.1" stroke-miterlimit="10" font-family="'Verdana'" font-size="2.5">UT</text>
			</g>
			<g id="id">
				<polygon id="ID_Outline" fill="#3E7AAC" stroke="#1A171B" stroke-width="0.2" stroke-miterlimit="10" points="44.5,13.4 
					47.5,14 46.7,18.4 47.3,19.6 47.4,20.4 47.3,20.9 47.1,21.1 47.3,21.3 47.7,21.8 48.5,22.6 49,23.8 49.1,24.4 49.4,25 49.9,25 
					50,25.4 50.7,25.5 50.9,25.8 50.1,27.3 50.2,27.5 49.9,27.7 49.9,28.5 50,28.5 49.9,28.9 49.4,29.3 49.4,29.7 49.4,30 
					49.2,30.4 49.9,31 50.1,30.9 51.1,30.1 51.2,30.1 51.4,30.1 51.5,30.5 51.6,30.6 51.8,30.7 51.7,31.3 51.7,32.2 51.9,32.9 
					52.3,33.4 52.3,33.7 52.1,34.1 52.4,34.6 52.8,34.6 53.2,35.1 53.2,35.4 53.1,36 53.1,36.2 53.3,36.7 53.8,36.9 54,36.5 
					54.2,36.4 55,36.6 55.3,36.7 55.6,36.4 55.9,36.4 56,36.5 56.9,36.6 57.3,36.8 57.5,36.7 58.4,36.7 58.4,36.4 58.8,36 
					59.3,36.5 59.4,37.1 59.8,37.4 59.8,37.4 58.1,48.9 58,48.9 47.7,47.1 37.4,45 39.3,36.8 39.7,36.2 39.8,35.6 39.9,35.6 
					39.9,35.4 40.1,35.2 39.9,34.8 39.3,34.5 39.2,34.2 39.3,33.7 40.2,32.4 40.7,32.2 41.1,31.8 41.1,31.5 41.4,31.2 43,28.7 
					42.9,28.1 42.5,27.8 42.3,27.7 41.9,27.3 41.8,26.9 41.8,26.3 42,26.1 42,25.8 41.8,25.5 41.8,25.1 42,24.9 				"/>
				<text transform="matrix(1.0127 0 0 1 46.7129 37.8452)" font-family="'Verdana'" font-size="2.5">ID</text>
				
					<text id="NameRegion32" transform="matrix(1.0127 0 0 1 46.7129 37.8452)" fill="none" stroke="#000000" stroke-width="0.1" stroke-miterlimit="10" font-family="'Verdana'" font-size="2.5">ID</text>
			</g>
			<g id="az">
				<polygon id="AZ_Outline" fill="#3E7AAC" stroke="#1A171B" stroke-width="0.2" stroke-miterlimit="10" points="57.9,99.2 
					61.7,73 43.1,70.1 43.1,70.1 42.7,72.5 42,74.5 41.6,74.5 41.3,74.2 41.3,74.1 41.1,73.7 40.3,73.5 39.8,73.7 39.6,73.9 
					39.7,74.7 39.5,77 39.7,77.3 39.4,78.3 39.2,78.6 39.3,78.8 39.2,79.5 39.3,79.7 39.2,79.9 39.5,80.5 39.5,80.9 39.7,81.3 
					39.8,81.8 40,81.9 40.3,82.2 40.3,82.7 40.3,82.8 40.1,82.7 39.6,83.1 39.1,83.3 38.7,83.8 38.4,85.1 37.6,86.1 37.2,86.1 
					37.2,86.3 37.3,86.6 37.3,86.9 37.1,87.5 37.2,87.8 37.8,88.2 37.8,88.4 37.7,88.6 37.6,88.9 37.3,89.2 37.1,89.2 36.5,89.1 
					36.2,90.2 49.9,98 57.9,99.3 				"/>
				<text transform="matrix(1.0127 0 0 1 49.2915 83.6738)" font-family="'Verdana'" font-size="2.5">AZ</text>
				
					<text id="NameRegion31" transform="matrix(1.0127 0 0 1 49.2915 83.6738)" fill="none" stroke="#000000" stroke-width="0.1" stroke-miterlimit="10" font-family="'Verdana'" font-size="2.5">AZ</text>
			</g>
			<g id="nv">
				<polygon id="NV_Outline" fill="#3E7AAC" stroke="#1A171B" stroke-width="0.2" stroke-miterlimit="10" points="27.4,42.6 
					23.8,56.4 39.3,78.8 39.2,78.6 39.4,78.3 39.7,77.3 39.5,77 39.7,74.7 39.6,73.9 39.8,73.7 40.3,73.5 41.1,73.7 41.3,74.1 
					41.3,74.2 41.6,74.5 42,74.5 42.7,72.5 43.1,70.1 47.7,47.1 37.4,45 				"/>
				<text transform="matrix(1.0127 0 0 1 33.9912 57.4209)" font-family="'Verdana'" font-size="2.5">NV</text>
				
					<text id="NameRegion30" transform="matrix(1.0127 0 0 1 33.9912 57.4209)" fill="none" stroke="#000000" stroke-width="0.1" stroke-miterlimit="10" font-family="'Verdana'" font-size="2.5">NV</text>
			</g>
			<g id="wa">
				<polygon id="WA_Outline" fill="#3E7AAC" stroke="#1A171B" stroke-width="0.2" stroke-miterlimit="10" points="42,25.8 42,26.1 
					41.8,26.3 41.8,26.9 35.3,25.4 34.8,25.6 34.5,25.6 34.1,25.5 33.7,25.4 33.4,25.3 33.1,25.3 32.7,25.4 32.3,25.3 31.9,25.3 
					31.4,25.5 31,25.6 30.2,25.5 30,25.4 29.5,25.2 28,25.4 27.7,25 26.4,24.6 25.9,24.5 25.1,24.6 23.9,24.5 23,24 22.8,23.7 
					22.9,22.5 22.9,22.3 22.8,21.5 22.1,21 21.6,21 21.5,20.8 21.3,20.5 20.7,20.3 20.6,20.2 20,19.8 19.8,19.8 19.7,19.8 
					19.7,19.6 19.9,19 20,18.8 20,18.6 20,18.4 20.1,18.4 20.1,18.4 20.2,18.7 20.1,18.9 20.1,19 20.1,19.2 20.6,18.8 20.6,18.6 
					20.6,18.4 20.7,18.2 20.6,17.9 20.3,17.8 20.3,17.1 20.4,17.1 20.7,17.1 20.7,17 21.2,16.9 20.9,16.6 20.9,16.6 20.8,16.5 
					20.4,16.7 20.4,16.2 20.4,15.9 20.6,15.3 20.5,14.8 20.4,14.4 20.6,13.5 20.6,13.1 20.2,11.8 20.3,11 20.4,10.5 20.5,9.8 
					22.8,11.4 24.1,12.1 25,12.4 25.6,12.7 26,12.7 26.2,12.8 26.4,13.1 26.5,14.2 26.4,14.5 26,14.7 25.9,15.2 25.9,15.6 
					25.9,15.9 25.9,16.1 25.8,16.3 25.8,16.5 26,16.6 26.4,16.4 26.7,15.4 26.9,15.2 27.1,14.7 27.7,14.1 27.8,13.8 27.5,12.9 
					27,11.6 27,11.4 27.1,11.4 27.4,11.4 27.7,10.8 27.7,10.2 27.3,10.2 27.2,9.8 27.2,8.9 32.1,10.3 36.8,11.5 44.5,13.4 42,24.9 
					41.8,25.1 41.8,25.5 				"/>
				<text transform="matrix(1.0127 0 0 1 30.7539 19.252)" font-family="'Verdana'" font-size="2.5">WA</text>
				
					<text id="NameRegion29" transform="matrix(1.0127 0 0 1 30.7539 19.252)" fill="none" stroke="#000000" stroke-width="0.1" stroke-miterlimit="10" font-family="'Verdana'" font-size="2.5">WA</text>
			</g>
			<g id="ca">
				<g id="CA_Outline">
					<polygon fill="#3E7AAC" stroke="#1A171B" stroke-width="0.2" stroke-miterlimit="10" points="40.3,82.2 40,81.9 39.8,81.8 
						39.7,81.3 39.5,80.9 39.5,80.5 39.2,79.9 39.3,79.7 39.2,79.5 39.3,78.8 23.8,56.4 27.4,42.6 13.4,38.9 13.2,39.1 12.9,39.7 
						13.2,40.3 13.1,41.6 12.7,42.1 12.4,42.4 12.3,43 12.3,43.3 11,44.7 10.5,45.5 10.6,46 10.5,46.1 10.5,46.7 10.7,47.2 
						10.9,47.4 11,47.6 11,47.9 11.5,48.9 11.6,49.9 11.5,50.1 11.2,50.6 10.9,51.6 10.9,52 11,52.4 10.8,52.9 11.3,54.3 11.6,54.9 
						12.3,55.7 12.3,57.4 12.1,57.9 12.6,58.1 13.1,58.9 13.7,59.1 13.8,58.9 13.8,58.6 14.2,58.2 14.3,58.3 14.3,58.9 14.3,59.4 
						14.6,60.3 14.5,60.7 14.4,60.8 13.9,60.4 13.8,60.3 13.8,59.7 13.7,59.4 13.5,59.5 13.4,60.2 13.2,60.3 13.3,60.7 13.2,60.9 
						13.1,62.4 13.4,63 14,63.5 14.5,63.8 14.8,64 14.7,64.8 14.3,65.2 14.1,65.3 13.9,65.5 13.8,66.7 14.6,67.9 14.7,68.3 
						14.9,68.7 15,69.3 16.1,71.3 16.6,71.6 16.5,72.1 16.4,72.1 16.3,72.3 16.4,72.8 16.8,73 16.9,73.6 16.8,73.8 16.7,74.3 
						16.6,75.1 16.3,75.4 16.3,75.8 16.8,76.2 17.5,76.7 18,76.7 19.7,77.4 20.3,77.6 20.9,78 21.3,79 22,79.6 22.5,79.8 23.4,79.9 
						23.8,80.3 23.7,80.6 23.9,80.9 23.7,81.3 24,81.6 24.6,81.6 25.5,82.4 25.9,83.1 26.3,83.5 27.1,85.1 27.1,86.6 27.1,86.8 
						27.2,87.2 27.3,87.2 27.4,87.3 27.3,87.4 27.2,87.6 27.3,88.1 27.4,88.2 36.5,89.1 37.1,89.2 37.3,89.2 37.6,88.9 37.7,88.6 
						37.8,88.4 37.8,88.2 37.2,87.8 37.1,87.5 37.3,86.9 37.3,86.6 37.2,86.3 37.2,86.1 37.6,86.1 38.4,85.1 38.7,83.8 39.1,83.3 
						39.6,83.1 40.1,82.7 40.3,82.8 40.3,82.7 					"/>
					<polygon fill="#3E7AAC" stroke="#1A171B" stroke-width="0.2" stroke-miterlimit="10" points="22.8,85.7 23.2,85.7 22.4,84.3 
											"/>
					<polygon fill="#3E7AAC" stroke="#1A171B" stroke-width="0.2" stroke-miterlimit="10" points="19.1,78.9 19.9,78.7 18.8,78 
											"/>
					<polygon fill="#3E7AAC" stroke="#1A171B" stroke-width="0.2" stroke-miterlimit="10" points="17.4,78.1 18.2,78.6 17.9,78 
											"/>
				</g>
				<text transform="matrix(1.0127 0 0 1 19.7036 65.5176)" font-family="'Verdana'" font-size="2.5">CA</text>
				
					<text id="NameRegion28" transform="matrix(1.0127 0 0 1 19.7036 65.5176)" fill="none" stroke="#000000" stroke-width="0.1" stroke-miterlimit="10" font-family="'Verdana'" font-size="2.5">CA</text>
			</g>
			<g id="or">
				<polygon id="OR_Outline" fill="#3E7AAC" stroke="#1A171B" stroke-width="0.2" stroke-miterlimit="10" points="13.4,38.9 
					13.2,38.6 12.9,37.7 13.1,37.2 13.1,36.8 13.4,36.1 13.3,34.6 13.5,34.3 13.8,34.2 14,33.9 14.2,33.4 14.4,33.3 14.4,32.6 
					14.6,32.6 15.5,31.5 15.9,30.5 16.7,29.1 17.5,26.5 18.2,25.4 18.7,23.8 19.4,21.8 19.6,21.1 19.7,20.5 19.7,20.3 20.1,20.2 
					20.4,20.3 20.7,20.3 21.3,20.5 21.5,20.8 21.6,21 22.1,21 22.8,21.5 22.9,22.3 22.9,22.5 22.8,23.7 23,24 23.9,24.5 25.1,24.6 
					25.9,24.5 26.4,24.6 27.7,25 28,25.4 29.5,25.2 30,25.4 30.2,25.5 31,25.6 31.4,25.5 31.9,25.3 32.3,25.3 32.7,25.4 33.1,25.3 
					33.4,25.3 33.7,25.4 34.1,25.5 34.5,25.6 34.8,25.6 35.3,25.4 41.8,26.9 41.9,27.3 42.3,27.7 42.5,27.8 42.9,28.1 43,28.7 
					41.4,31.2 41.1,31.5 41.1,31.8 40.7,32.2 40.2,32.4 39.3,33.7 39.2,34.2 39.3,34.5 39.9,34.8 40.1,35.2 39.9,35.4 39.9,35.6 
					39.8,35.6 39.7,36.2 39.3,36.8 37.4,45 27.4,42.6 				"/>
				<text transform="matrix(1.0127 0 0 1 26.6924 34.2793)" font-family="'Verdana'" font-size="2.5">OR</text>
				
					<text id="NameRegion27" transform="matrix(1.0127 0 0 1 26.6924 34.2793)" fill="none" stroke="#000000" stroke-width="0.1" stroke-miterlimit="10" font-family="'Verdana'" font-size="2.5">OR</text>
			</g>
			<g id="ky">
				<polygon id="KY_Outline" fill="#3E7AAC" stroke="#1A171B" stroke-width="0.2" stroke-miterlimit="10" points="134.7,77.7 
					140.1,77.3 140.1,76.9 140,76.6 140.6,76.5 140.9,76.7 156.3,75.3 156.7,75.1 156.9,74.8 158.2,74.2 158.4,73.9 159.1,73.4 
					159.2,73 159.3,72.8 159.6,72.6 159.7,72.2 160.1,71.9 162,70.3 162.1,69.9 161.8,69.9 161.6,69.7 161.5,69.7 161.3,69.6 
					161,69.4 160.8,69.4 160.7,69.4 160.2,68.6 159.4,67.7 159.4,67.4 159.4,67.1 159.4,66.7 159.3,66.1 159.1,65.9 158.7,65.6 
					158.3,65.5 158,65 157.8,64.7 157.3,65.1 157.2,65.2 157,65.4 156.9,65.5 156.3,65.6 155.7,65.3 155.4,65.4 155.1,65.8 
					154.3,65.2 153.6,65.3 153,65.1 152.8,64.4 152,63.9 151.6,64.1 151.4,64.1 151,63.9 150.7,63.9 150.6,64.2 150.6,64.5 
					150.8,65.3 150.7,65.6 150.3,65.7 149.7,66.1 149.1,65.9 148.8,66.2 148.8,66.8 147.3,68.7 147.1,69.6 146.2,69.6 145.8,69.1 
					145.5,69.1 145.3,69.4 145,70.3 144.7,70.6 144.3,70.3 144.1,70 143.4,70.2 143.2,71 143,71 142.9,70.9 141.8,70.4 140.9,70.7 
					140.2,70.7 140.1,71 140.1,71.2 139.8,71.3 139.5,71.2 139.5,71.2 139.6,71.3 139.5,71.5 139.4,71.9 139.2,72 139.2,72.2 
					139.6,72.6 139.5,72.7 138.4,73 138.1,73.2 138.1,73.7 138.4,74.6 137.8,74.8 137.4,74.5 136.9,74.3 136.3,74.2 135.8,74.4 
					135.6,75.3 135.7,75.3 135.8,75.4 136,75.5 136.1,76 135.8,77.1 135.6,77.3 135.4,77.2 134.9,77.4 				"/>
				<text transform="matrix(1.0127 0 0 1 149.3311 72.2661)" font-family="'Verdana'" font-size="2.5">KY</text>
				
					<text id="NameRegion26" transform="matrix(1.0127 0 0 1 149.3311 72.2661)" fill="none" stroke="#000000" stroke-width="0.1" stroke-miterlimit="10" font-family="'Verdana'" font-size="2.5">KY</text>
			</g>
			<g id="me">
				<polygon id="ME_Outline" fill="#3E7AAC" stroke="#1A171B" stroke-width="0.2" stroke-miterlimit="10" points="192,26.8 
					194.6,34.6 194.7,34.8 194.6,35.1 194.7,35.3 195.3,35.8 195.5,35.8 195.5,36.1 195.5,36.2 195.9,36.9 196,36.7 196.1,36.2 
					196.1,35.7 196.4,35.1 196.6,34.2 197,33.9 197,33.7 196.8,33.6 196.6,33.1 197.5,32.3 197.7,32.4 197.8,32.8 197.9,32.9 
					198,32.7 198,32.3 198.1,32.1 198.8,32 199.1,31.7 199.1,31.4 199.2,31.3 199.5,31.3 199.8,31.1 199.9,31 200,30.4 200,30 
					200.4,29.5 200.4,29.2 200.6,29.2 201.1,29.3 201.3,29.2 201.4,28.9 201.6,28.5 201.8,28.5 202.1,27.9 202.6,28 203,28.3 
					203.5,27.4 203.9,27.2 204.6,26.6 204.8,26.3 204.9,26.2 205.1,26.2 205.4,26 205.6,25.6 205.6,25.3 205.3,25.2 205.2,25.2 
					205,25.1 205.2,24.8 205.3,24.7 205.3,24.5 205,23.9 204.6,23.7 204.4,23.8 204.3,23.9 204,24 203.6,23.9 203.3,22.7 
					203.5,22.6 203.4,22.3 203.3,22.2 203.1,22.2 202.9,22.3 202.4,22.1 202.1,22.1 202,22 201.8,21.3 201.7,21.1 200.1,16 
					198.7,15.2 198.3,15.1 197.9,15.1 197.8,15.4 197.7,15.6 197.5,15.6 197,15.9 196.3,16.5 196.1,16.5 195.8,16.2 195.8,15.6 
					195.7,15.4 195.5,15.4 194.9,15.6 193.7,19.6 193.7,20.2 193.9,20.5 193.9,20.9 193.8,21.2 193.6,21.4 193.4,21.8 193.8,23.4 
					193.6,23.9 193.6,24.3 193,25.1 193,25.4 193.2,25.9 193.1,26 192.8,26 192.8,26.4 192.7,26.6 192.6,26.6 192.3,26.5 				"/>
				<text transform="matrix(1.0127 0 0 1 196.9365 25.9102)" font-family="'Verdana'" font-size="2.5">ME</text>
				
					<text id="NameRegion25" transform="matrix(1.0127 0 0 1 196.9365 25.9102)" fill="none" stroke="#000000" stroke-width="0.1" stroke-miterlimit="10" font-family="'Verdana'" font-size="2.5">ME</text>
			</g>
			<g id="pa">
				<polygon id="PA_Outline" fill="#3E7AAC" stroke="#1A171B" stroke-width="0.2" stroke-miterlimit="10" points="169.3,58.3 
					179.2,56.4 182.3,55.9 182.4,55.8 182.5,55.7 182.5,55.5 182.9,55.1 183.3,55.1 183.6,55.2 184.5,54.5 184.6,54 185.2,53.5 
					185.7,53.1 185.8,53 185.3,52.7 185.1,52.4 184.8,52.3 184.7,52.2 184.3,52.1 184.1,51.5 183.7,51.5 183.6,51.4 183.6,50.5 
					183.8,50.4 183.7,49.9 183.5,49.6 183.5,49.5 183.5,49.3 184,48.9 184.1,48.3 184.1,48 184.3,47.6 184.5,47.6 184.2,47.3 
					183.3,47.2 183.3,47.1 183.2,47 183,46.7 182.6,45.8 182.3,45.7 182.2,45.6 182.1,45.6 182,45.5 181.9,45.2 181.6,45 166.5,48 
					166.2,46.8 165.4,47.6 165.3,47.7 165.2,47.5 165,47.5 164.8,48 164.2,48.6 163.9,48.8 165,54.9 165.7,59 				"/>
				<text transform="matrix(1.0127 0 0 1 172.7246 52.5093)" font-family="'Verdana'" font-size="2.5">PA</text>
				
					<text id="NameRegion24" transform="matrix(1.0127 0 0 1 172.7246 52.5093)" fill="none" stroke="#000000" stroke-width="0.1" stroke-miterlimit="10" font-family="'Verdana'" font-size="2.5">PA</text>
			</g>
			<g id="mi">
				<g id="MI_Outline">
					<polygon fill="#3E7AAC" stroke="#1A171B" stroke-width="0.2" stroke-miterlimit="10" points="142.1,52.5 149.3,51.6 
						149.3,51.8 153.9,51.2 154,51 154.5,49.9 154.7,49.6 154.7,48.9 154.9,48.3 155.5,47.9 155.5,47.2 155.6,47.1 155.6,46.8 
						155.9,46.5 156.1,46.8 156.2,46.9 156.4,46.7 156.5,46.6 156.6,46.2 156.5,45.6 156.6,44.8 156.3,44.3 156.2,43.2 155.2,40.5 
						154.1,40.2 153.7,40.5 153.2,40.9 152,42.7 151.9,42.7 151.8,42.6 151.3,42.5 151.2,42.3 151,41.9 151.1,41.2 151.4,40.9 
						151.9,40.5 152.1,40.2 152.1,39.9 152.2,39.6 152.5,39.4 152.8,38.9 152.8,37.7 152.6,37.1 152.4,36.8 152,36.4 151.9,36.1 
						152,35.8 152.4,35.7 152.5,35.6 152,34.8 151.6,34.5 150.4,34.1 149.5,33.9 149.2,33.6 148.5,33.4 147.8,33.2 147.3,32.9 
						147,33.1 146.7,33.3 146.3,33.9 146.3,34.4 146.4,34.6 146.5,34.6 146.6,34.9 146.5,34.9 146.2,35.1 145.9,35.2 145.7,35.6 
						145.4,36 145.5,36.5 145.6,37 145.3,37.6 144.9,37.8 144.8,37.4 145,36.9 144.8,36.4 144.9,36.2 144.8,36.1 144.7,36.2 
						144.4,36.5 144.4,37 144.2,37.2 144,37.2 143.5,37.6 143.4,37.9 143.3,38.2 142.9,38.6 142.9,39.3 142.8,40.2 142.8,40.6 
						142.5,41.3 142.2,41.6 142.3,42 142.6,43 142.4,43.7 142.7,44.2 143.4,45.6 143.8,46.7 143.8,47.7 144.1,47.9 144.1,48 
						143.9,48.2 143.8,49.2 143.6,49.9 143.4,50.5 142.8,51.9 142.3,52.3 					"/>
					<polygon fill="#3E7AAC" stroke="#1A171B" stroke-width="0.2" stroke-miterlimit="10" points="128.4,30.9 129.1,30.6 
						129.4,30.4 130.1,30 130.2,29.7 130.5,29.7 131.8,29.2 132.7,28.7 133.7,27.7 134.1,27.6 134.9,26.6 135.5,26.3 136.5,26.2 
						136.7,26.2 136.8,26.3 136.3,26.7 136.1,26.7 135.9,27.2 135.2,27.9 134.9,28.2 134.7,28.5 134.5,29.1 134.7,29.6 134.8,29.3 
						135.4,28.9 135.8,28.9 136,28.8 137.3,29.4 138.4,30.5 139.2,30.4 139.6,30.4 139.9,30.6 140.1,30.6 140.2,30.5 140.5,30.6 
						140.5,30.8 140.7,30.6 140.9,30.4 141.8,29.7 144.7,29 145.5,28.5 145.9,28.4 146,28.6 145.8,29 145.8,29.3 146.2,29.9 
						146.4,30 146.5,29.9 147,29.9 147.2,29.8 148.2,29.7 148.6,30 149,30.7 149.3,31 150,31.3 150.7,31.1 150.9,31.1 151.1,31.3 
						151.1,31.6 150.8,31.9 150.4,31.9 150.1,31.9 150,31.7 149.9,31.7 149.4,32 149.1,31.9 148.8,31.8 148,32 147.5,31.9 147.3,32 
						147.4,32.5 147.3,32.6 147.1,32.5 146.6,32.1 145.4,32 145.1,32 144.8,31.9 144,32.5 143.8,32.5 143.5,32.7 143.4,32.8 
						143.2,32.9 142.7,32.8 142.2,32.9 142.1,33.3 142,33.5 141,34.4 140.8,34.4 140.7,34.2 141.2,33.6 141.2,33.3 140.6,33.4 
						140.3,33.9 140.1,34.1 139.9,33.9 139.8,33.4 139.7,33.4 139.6,34.1 139.2,34.8 139,35.4 138.8,35.8 138.3,36.5 138.3,37 
						138.2,37.2 137.7,36.9 137.6,36.4 137.8,36.2 137.8,36 137.8,35.9 137.2,36 137.1,36 137.2,34.8 137.2,34.4 136.6,34.1 
						136.1,33.9 136.1,33.8 136.2,33.7 136,33.5 135.5,33.3 134.7,33.2 134.5,33.2 134.4,33.3 134.2,33.2 133.8,33.2 133.1,32.6 
						132.7,32.6 129.7,32 129.4,31.9 129.3,31.4 129.1,31.2 128.6,31.1 					"/>
				</g>
				<text transform="matrix(1.0127 0 0 1 146.1992 43.8125)" font-family="'Verdana'" font-size="2.5">MI</text>
				
					<text id="NameRegion23" transform="matrix(1.0127 0 0 1 146.1992 43.8125)" fill="none" stroke="#000000" stroke-width="0.1" stroke-miterlimit="10" font-family="'Verdana'" font-size="2.5">MI</text>
			</g>
			<g id="ma">
				<polygon id="MA_Outline" fill="#3E7AAC" stroke="#1A171B" stroke-width="0.2" stroke-miterlimit="10" points="187.9,40.1 
					190.5,39.6 194.5,38.7 194.5,38.5 194.6,38.4 194.7,38.5 194.8,38.4 194.7,38.1 195.1,38 195.4,37.6 195.6,37.5 195.8,37.6 
					196,38.1 196.5,38.5 196.6,38.7 196.5,38.9 196.3,39 196.1,39.4 195.9,39.9 195.9,40.2 196.4,40.2 196.9,40.4 197.6,41.2 
					197.9,41.6 198.2,42 199,42.1 199.5,41.8 199.8,41.3 199.7,41.2 199.3,40.9 198.9,40.7 198.9,40.5 199.3,40.5 199.4,40.5 
					200,41.3 200.3,42.1 200.3,42.5 199.9,42.2 199.5,42.5 198.9,42.8 198.3,43.3 198.2,43.3 198,43.2 198,43 197.9,42.6 
					197.8,42.6 197.5,43.2 197,43.7 196.9,43.8 196.7,43.5 196.6,43.4 196.5,43.3 196.4,43.2 196.2,43.1 196.2,42.9 195.5,42.8 
					195.4,42.3 195.1,42.2 195,41.8 193.7,42.1 190.5,42.9 190.5,43.1 190.4,43.2 190.2,42.9 188,43.4 187.9,43.3 				"/>
				<text transform="matrix(1.0127 0 0 1 190.1494 41.8115)" font-family="'Verdana'" font-size="2.5">MA</text>
				
					<text id="NameRegion22" transform="matrix(1.0127 0 0 1 190.1494 41.8115)" fill="none" stroke="#000000" stroke-width="0.1" stroke-miterlimit="10" font-family="'Verdana'" font-size="2.5">MA</text>
			</g>
			<g id="ri">
				<polygon id="RI_Outline" fill="#3E7AAC" stroke="#1A171B" stroke-width="0.2" stroke-miterlimit="10" points="193.7,42.1 
					194.4,44.7 194.3,45 194.2,45.1 194.3,45.2 194.3,45.3 194.5,45.4 195.2,44.9 195.6,44.6 195.6,44.3 195.5,44.1 195.5,43.7 
					195.8,43.4 195.9,43.5 195.9,43.7 195.9,44.3 196,44.5 196.2,44.4 196.2,44.1 196.3,44.1 196.6,43.9 196.9,43.8 196.9,43.8 
					196.7,43.5 196.6,43.4 196.5,43.3 196.4,43.2 196.2,43.1 196.2,42.9 195.5,42.8 195.4,42.3 195.1,42.2 195,41.8 				"/>
				<text transform="matrix(1.0127 0 0 1 194.9844 46.5991)" font-family="'Verdana'" font-size="2.5">RI</text>
				
					<text id="NameRegion21" transform="matrix(1.0127 0 0 1 194.9844 46.5991)" fill="none" stroke="#000000" stroke-width="0.1" stroke-miterlimit="10" font-family="'Verdana'" font-size="2.5">RI</text>
			</g>
			<g id="ct">
				<polygon id="CT_Outline" fill="#3E7AAC" stroke="#1A171B" stroke-width="0.2" stroke-miterlimit="10" points="188,43.4 
					190.2,42.9 190.4,43.2 190.5,43.1 190.5,42.9 193.7,42.1 194.4,44.7 194.3,45 194.2,45.1 194.3,45.2 194.3,45.3 193.9,45.4 
					192.8,45.8 192.6,45.8 192.4,45.9 192.4,46.1 192.3,46.1 191.7,46.2 190.8,46.7 190.7,46.5 190.2,47.1 189,48.1 188.5,48.4 
					188.1,48 188.7,47.4 188.7,47.2 188.5,46.9 				"/>
				<text transform="matrix(1 0 0 1 189.2322 45.6363)" font-family="'Verdana'" font-size="2.5">C</text>
				
					<text transform="matrix(1 0 0 1 189.2322 45.6363)" fill="none" stroke="#000000" stroke-width="0.1" stroke-miterlimit="10" font-family="'Verdana'" font-size="2.5">C</text>
				<text transform="matrix(1 0 0 1 191.0632 45.6363)" font-family="'Verdana'" font-size="2.5">T</text>
				
					<text transform="matrix(1 0 0 1 191.0632 45.6363)" fill="none" stroke="#000000" stroke-width="0.1" stroke-miterlimit="10" font-family="'Verdana'" font-size="2.5">T</text>
			</g>
			<g id="wv">
				<polygon id="WV_Outline" fill="#3E7AAC" stroke="#1A171B" stroke-width="0.2" stroke-miterlimit="10" points="165,54.9 
					164.9,54.8 164.6,55.1 164.8,55.5 164.3,56 165,56.3 164.7,58 164.6,58.4 164.6,58.8 164.7,59 164.7,59.5 164.3,59.9 164.1,60 
					163.4,60.8 163.4,61 163,61.1 162.7,61 162.4,61.3 162.3,61.5 162,61.8 161.6,62.6 161.8,63.2 161.3,63.6 161,63.1 160.8,63.1 
					160.4,64.2 160.5,64.7 160.4,65.2 160.1,65.4 159.8,66 159.3,66.1 159.4,66.7 159.4,67.1 159.4,67.4 159.4,67.7 160.2,68.6 
					160.7,69.4 160.8,69.4 161,69.4 161.3,69.6 161.5,69.7 161.6,69.7 161.8,69.9 162.1,69.9 162.2,70 162.1,70.4 162.7,70.9 
					163.5,71.2 163.8,71.2 164.3,70.9 164.3,70.6 164.6,70.5 164.9,70.7 165.1,70.8 165.4,70.8 166.3,70.4 166.5,69.8 166.6,69.8 
					166.8,70 167.5,69.4 167.8,69.5 168.4,68.7 168.3,68.4 168.3,67.8 168.9,66.7 169.7,63.6 169.9,63.6 170.3,63.9 170.4,64.1 
					170.6,64.3 171.1,64.2 171.4,63.7 171.7,62.6 172,62.1 172.4,62.3 172.7,61.6 173,61.5 173.3,61.2 173.5,60.6 173.7,60.4 
					173.7,60.3 173.6,60.1 173.7,59.2 173.7,59.1 173.9,58.9 175.6,60 175.8,60.1 175.9,60 176.1,59.1 176.1,59.1 175.7,58.3 
					175.5,58.2 175.3,57.8 175.1,57.9 174.8,57.9 174.5,57.8 173.3,58.2 173.2,58.5 172.7,58.7 172.3,58.5 172.1,58.3 171.9,58.8 
					171.6,58.9 171.4,59.3 171,59.4 170.3,60.3 170.1,60.4 169.9,60.7 169.3,58.3 165.7,59 				"/>
				<g id="NameRegion19">
					<text transform="matrix(1.0127 0 0 1 162.8906 65.5171)" font-family="'Verdana'" font-size="2.5">WV</text>
					
						<text transform="matrix(1.0127 0 0 1 162.8906 65.5171)" fill="none" stroke="#000000" stroke-width="0.1" stroke-miterlimit="10" font-family="'Verdana'" font-size="2.5">WV</text>
				</g>
			</g>
			<g id="oh">
				<polygon id="OH_Outline" fill="#3E7AAC" stroke="#1A171B" stroke-width="0.2" stroke-miterlimit="10" points="149.3,51.8 
					150.7,63.9 151,63.9 151.4,64.1 151.6,64.1 152,63.9 152.8,64.4 153,65.1 153.6,65.3 154.3,65.2 155.1,65.8 155.4,65.4 
					155.7,65.3 156.3,65.6 156.9,65.5 157,65.4 157.2,65.2 157.3,65.1 157.8,64.7 158,65 158.3,65.5 158.7,65.6 159.1,65.9 
					159.3,66.1 159.8,66 160.1,65.4 160.4,65.2 160.5,64.7 160.4,64.2 160.8,63.1 161,63.1 161.3,63.6 161.8,63.2 161.6,62.6 
					162,61.8 162.3,61.5 162.4,61.3 162.7,61 163,61.1 163.4,61 163.4,60.8 164.1,60 164.3,59.9 164.7,59.5 164.7,59 164.6,58.8 
					164.6,58.4 164.7,58 165,56.3 164.3,56 164.8,55.5 164.6,55.1 164.9,54.8 165,54.9 163.9,48.8 162.1,49.6 161.3,50.1 161,50.4 
					160,51.5 159.7,51.6 159.4,51.6 158.8,51.6 158.5,51.7 157.7,52.4 157.3,52.3 156.7,52.1 156.5,52.2 156.2,52.1 156.4,51.9 
					156.3,51.8 155.7,51.7 154.6,51.4 154.4,51.3 153.9,51.4 153.9,51.2 				"/>
				<text transform="matrix(1.0127 0 0 1 154.4893 58.877)" font-family="'Verdana'" font-size="2.5">OH</text>
				
					<text id="NameRegion18" transform="matrix(1.0127 0 0 1 154.4893 58.877)" fill="none" stroke="#000000" stroke-width="0.1" stroke-miterlimit="10" font-family="'Verdana'" font-size="2.5">OH</text>
			</g>
			<g id="in">
				<polygon id="IN_Outline" fill="#3E7AAC" stroke="#1A171B" stroke-width="0.2" stroke-miterlimit="10" points="139.9,52.8 
					140.8,63.8 140.6,64 140.7,64.4 140.6,65 141,65.8 141.2,66.8 140.6,67.8 140.6,68 140.3,68.8 139.7,69.3 139.7,70 139.5,70.9 
					139.5,71.1 139.5,71.2 139.5,71.2 139.8,71.3 140.1,71.2 140.1,71 140.2,70.7 140.9,70.7 141.8,70.4 142.9,70.9 143,71 
					143.2,71 143.4,70.2 144.1,70 144.3,70.3 144.7,70.6 145,70.3 145.3,69.4 145.5,69.1 145.8,69.1 146.2,69.6 147.1,69.6 
					147.3,68.7 148.8,66.8 148.8,66.2 149.1,65.9 149.7,66.1 150.3,65.7 150.7,65.6 150.8,65.3 150.6,64.5 150.6,64.2 150.7,63.9 
					149.3,51.8 149.3,51.6 142.1,52.5 141.9,52.7 141.3,52.9 141,53.1 140.3,53.2 				"/>
				<text transform="matrix(1.0127 0 0 1 144.0625 61.188)" font-family="'Verdana'" font-size="2.5">IN</text>
				
					<text id="NameRegion17" transform="matrix(1.0127 0 0 1 144.0625 61.188)" fill="none" stroke="#000000" stroke-width="0.1" stroke-miterlimit="10" font-family="'Verdana'" font-size="2.5">IN</text>
			</g>
			<g id="il">
				<polygon id="IL_Outline" fill="#3E7AAC" stroke="#1A171B" stroke-width="0.2" stroke-miterlimit="10" points="138.5,49.3 
					128.8,49.9 128.9,50.2 129.6,50.7 129.7,51.1 130.4,51.5 130.6,52.3 130.6,52.7 130.4,53.2 130.1,53.4 130.1,53.8 129.5,54.5 
					128.9,54.7 128.7,54.8 128,54.9 127.7,55.1 127.4,55.6 127.5,56 127.9,56.4 128,56.7 127.9,57.4 127.4,58.5 126.9,58.9 
					126.7,59.2 126.7,59.6 126.4,60 126.4,60.2 126.3,60.7 126.3,61.6 126.6,62.3 126.7,62.7 127.7,63.9 128.8,64.7 129.1,65 
					129.7,66.7 129.9,66.8 130.2,66.5 130.5,66.4 131.4,66.8 131.6,67.1 131.4,67.7 131.5,68.3 130.8,69.1 130.7,69.4 130.9,69.9 
					131.5,70.5 132.6,71.2 133.1,71.4 134.2,72.3 134.3,73.1 134.7,73.5 134.7,73.7 134.4,73.9 134.4,74.1 135.1,75.4 135.3,75.3 
					135.3,75.1 135.6,75.1 135.6,75.3 135.8,74.4 136.3,74.2 136.9,74.3 137.4,74.5 137.8,74.8 138.4,74.6 138.1,73.7 138.1,73.2 
					138.4,73 139.5,72.7 139.6,72.6 139.2,72.2 139.2,72 139.4,71.9 139.5,71.5 139.6,71.3 139.5,71.2 139.5,71.1 139.5,70.9 
					139.7,70 139.7,69.3 140.3,68.8 140.6,68 140.6,67.8 141.2,66.8 141,65.8 140.6,65 140.7,64.4 140.6,64 140.8,63.8 139.9,52.8 
					139.7,52.7 139.5,52.4 139.3,51.4 139.2,51.1 138.8,50.8 138.5,50.1 				"/>
				<text transform="matrix(1.0127 0 0 1 133.709 61.4419)" font-family="'Verdana'" font-size="2.5">IL</text>
				
					<text id="NameRegion16" transform="matrix(1.0127 0 0 1 133.709 61.4419)" fill="none" stroke="#000000" stroke-width="0.1" stroke-miterlimit="10" font-family="'Verdana'" font-size="2.5">IL</text>
			</g>
			<g id="nc">
				<polygon id="NC_Outline" fill="#3E7AAC" stroke="#1A171B" stroke-width="0.2" stroke-miterlimit="10" points="153.8,83.1 
					153.9,82 154.3,82 154.4,81.9 154.7,81.7 154.7,81.4 154.7,81.2 154.9,80.9 155.1,80.6 155.9,80.2 156.8,80 157.7,79.3 
					158,79.1 158.5,78.6 158.7,78.2 158.8,78.1 159,78.2 159.1,77.9 159.2,77.8 159.5,77.5 159.6,77.6 159.9,77.7 160.2,77.6 
					160.2,77.4 160.7,77.1 161,76.9 161.6,76.9 162.2,75.8 162.7,75.5 162.8,75.3 162.9,75 162.8,74.6 162.9,74.3 162.9,74.2 
					163.9,74 163.8,74.2 164.9,74.1 165.3,74 165.5,74.1 175.3,72.4 184.7,70.7 184.9,70.8 185,71 185.2,71.1 185.4,71.2 
					185.6,71.4 185.7,71.6 185.9,72 185.8,72.2 185.8,72.2 185.7,72.2 185.7,72 185.4,72.1 185.2,72.1 185,72 184.9,72.1 185,72.3 
					184.9,72.4 184,72.8 183.9,73 183.5,73.3 183,73.4 182.9,73.7 182.9,73.8 183,73.9 183.2,73.8 183.7,73.5 184.3,73.4 
					184.7,73.2 185.2,73.2 185.3,73.3 185.2,73.6 185.3,73.8 185.4,73.9 185.7,73.8 185.7,73.6 186.1,73.2 186.4,73.2 186.5,73.7 
					186.6,74.4 186.7,74.6 186.7,74.7 186.2,75.1 186.1,75.4 186,75.6 185.7,75.9 185.4,76 185.1,76.2 184.5,76.1 184.3,76.1 
					184.2,76.1 184.1,76.1 184,75.8 184,75.7 183.9,75.6 183.7,75.5 183.6,75.7 183.7,76.2 183.6,76.4 183.6,76.3 183.7,76.6 
					184,76.6 184.3,76.9 184.1,77.2 184.2,77.4 183.5,78.3 183.3,78.3 182.9,78.2 182.6,78.2 182.5,78.3 182.8,78.5 183.6,78.5 
					184,78.3 184.7,78 184.8,77.7 185,77.8 185.3,78 185,78.6 184.4,79.2 183.8,79.3 183.5,79.5 182.8,79.6 182.1,80.6 181.8,80.7 
					181.8,80.8 181.9,80.9 181.1,81.3 180.7,81.8 180.3,82.7 180.1,83.8 179.9,84.1 179.5,84.3 178,84.6 177.9,84.7 172.8,81.3 
					168.5,81.8 168.4,81.2 167.7,80.6 167.3,80.8 167.2,80.6 167.2,80.5 167.2,80.3 162.2,80.9 162.1,80.9 162,81.1 161,81.5 
					160.9,81.7 160.6,81.7 159.5,82.3 				"/>
				<text transform="matrix(1.0127 0 0 1 172.7246 77.6885)" font-family="'Verdana'" font-size="2.5">NC</text>
				
					<text id="NameRegion15" transform="matrix(1.0127 0 0 1 172.7246 77.6885)" fill="none" stroke="#000000" stroke-width="0.1" stroke-miterlimit="10" font-family="'Verdana'" font-size="2.5">NC</text>
			</g>
			<g id="tn">
				<polygon id="TN_Outline" fill="#3E7AAC" stroke="#1A171B" stroke-width="0.2" stroke-miterlimit="10" points="162.9,74.3 
					156.7,75.1 156.3,75.3 140.9,76.7 140.6,76.5 140,76.6 140.1,76.9 140.1,77.3 134.7,77.7 134.4,78.4 134.2,79.2 134.3,79.4 
					134.1,80.1 133.9,80.3 134,80.6 133.9,81 133.4,81.5 133.2,82.4 132.7,83 132.8,83.7 132.7,84.5 132.6,84.6 132.2,84.9 
					140.1,84.4 150,83.5 153.8,83.1 153.9,82 154.3,82 154.4,81.9 154.7,81.7 154.7,81.4 154.7,81.2 154.9,80.9 155.1,80.6 
					155.9,80.2 156.8,80 157.7,79.3 158,79.1 158.5,78.6 158.7,78.2 158.8,78.1 159,78.2 159.1,77.9 159.2,77.8 159.5,77.5 
					159.6,77.6 159.9,77.7 160.2,77.6 160.2,77.4 160.7,77.1 161,76.9 161.6,76.9 162.2,75.8 162.7,75.5 162.8,75.3 162.9,75 
					162.8,74.6 				"/>
				<text transform="matrix(1.0127 0 0 1 144.0615 81.1782)" font-family="'Verdana'" font-size="2.5">TN</text>
				
					<text id="NameRegion14" transform="matrix(1.0127 0 0 1 144.0615 81.1782)" fill="none" stroke="#000000" stroke-width="0.1" stroke-miterlimit="10" font-family="'Verdana'" font-size="2.5">TN</text>
			</g>
			<g id="sc">
				<polygon id="SC_Outline" fill="#3E7AAC" stroke="#1A171B" stroke-width="0.2" stroke-miterlimit="10" points="170.2,94.6 
					170,94.6 169.4,94.6 169.3,94.5 169.2,94.2 168.9,93.3 168.5,92.6 167.9,92.4 167.6,91.4 167.2,91 167,90.5 166.7,90.4 
					166,90.1 165.6,89.6 165.2,89.3 165.1,89 164.9,88.6 164.8,88.4 164.1,88.2 162.9,87.1 162.4,86.9 162.2,86.5 161.7,86.1 
					161.3,85.4 161,85 160.8,84.7 160.1,84.6 159,84.1 158.7,83.8 159.1,83 159.3,82.8 159.5,82.5 159.5,82.3 159.5,82.3 
					160.6,81.7 160.9,81.7 161,81.5 162,81.1 162.1,80.9 162.2,80.9 167.2,80.3 167.2,80.5 167.2,80.6 167.3,80.8 167.7,80.6 
					168.4,81.2 168.5,81.8 172.8,81.3 177.9,84.7 177.7,84.8 177.3,85.1 176.9,85.5 176.5,86.1 176.1,86.9 175.9,87.4 175.9,87.9 
					175.9,88.3 175.8,88.5 175.7,88.7 175.3,88.7 175.2,88.9 174.9,89.2 174.6,89.6 174.5,89.9 173.8,90.4 173.5,90.9 173.1,91.2 
					172.7,91.6 172.4,91.8 172.2,92 171.8,92.2 171.6,92.3 171.5,92.4 171.5,92.6 171.4,92.6 171.3,93 171,93.3 170.7,93.3 
					170.6,93.4 170.6,93.4 170.6,93.6 170.8,93.6 170.8,93.7 170.8,93.8 170.6,94 170.3,94.3 170.2,94.5 				"/>
				<text transform="matrix(1.0127 0 0 1 166.5566 87.3291)" font-family="'Verdana'" font-size="2.5">SC</text>
				
					<text id="NameRegion13" transform="matrix(1.0127 0 0 1 166.5566 87.3291)" fill="none" stroke="#000000" stroke-width="0.1" stroke-miterlimit="10" font-family="'Verdana'" font-size="2.5">SC</text>
			</g>
			<g id="al">
				<polygon id="AL_Outline" fill="#3E7AAC" stroke="#1A171B" stroke-width="0.2" stroke-miterlimit="10" points="140.1,84.4 
					140.5,84.8 140.2,98.5 140.3,99.1 141.1,106 141.3,105.9 141.5,105.7 142.1,106 142.3,105.7 142.4,104.7 142.7,104 143.1,104.7 
					143,104.9 143.2,105.5 143.7,106.1 144.1,106.1 144.4,106.1 144.9,105.6 145,105.6 145.2,105.4 145.2,105.3 145.1,105.2 
					144.9,105.1 144.9,104.9 145.1,104.5 145,104.4 144.7,104.1 144.6,104.1 144.4,103.9 144.1,103.5 144.1,103.2 144.2,103.1 
					144.1,102.9 144.1,102.8 154.5,101.7 154.5,101.4 154,100.7 154,99.5 153.6,98.5 153.5,97.7 153.8,97.1 153.8,96.5 154.1,96 
					154.2,95.8 153.8,95.4 154,95 153.7,94.8 153.4,94.5 153.2,94.2 153,93.6 152.8,93.3 150,83.5 				"/>
				<text transform="matrix(1.0127 0 0 1 145.1484 94.4263)" font-family="'Verdana'" font-size="2.5">AL</text>
				
					<text id="NameRegion12" transform="matrix(1.0127 0 0 1 145.1484 94.4263)" fill="none" stroke="#000000" stroke-width="0.1" stroke-miterlimit="10" font-family="'Verdana'" font-size="2.5">AL</text>
			</g>
			<g id="ms">
				<polygon id="MS_Outline" fill="#3E7AAC" stroke="#1A171B" stroke-width="0.2" stroke-miterlimit="10" points="140.1,84.4 
					132.2,84.9 132.2,85.2 131.4,85.8 131.2,86.5 131.2,87.3 131.1,87.7 130.4,88.1 130,88.8 129.8,89 129.8,89.6 129.4,90 
					129.4,90.5 129.2,91.1 128.8,91.7 129,92.4 129.3,92.8 129.4,93.3 129.5,93.4 129.5,93.6 129.3,93.8 129.2,94.2 129.2,94.4 
					129.2,94.8 129.7,95.8 129.8,96.6 130,97.1 130.2,97.4 130.3,97.8 129.8,98.1 129.7,98.2 129.4,99.2 128.7,100.4 128,102.3 
					128,103.8 135.3,103.4 135.5,103.7 135.3,104.4 135.3,105.4 136.1,106.2 136.3,107.1 136.8,107.1 137.6,106.4 139.4,105.9 
					139.8,106 140.5,105.8 140.6,106 141,106.1 141.1,106 140.3,99.1 140.2,98.5 140.5,84.8 				"/>
				<text transform="matrix(1.0127 0 0 1 133.708 94.8262)" font-family="'Verdana'" font-size="2.5">MS</text>
				
					<text id="NameRegion11" transform="matrix(1.0127 0 0 1 133.708 94.8262)" fill="none" stroke="#000000" stroke-width="0.1" stroke-miterlimit="10" font-family="'Verdana'" font-size="2.5">MS</text>
			</g>
			<g id="ar">
				<polygon id="AR_Outline" fill="#3E7AAC" stroke="#1A171B" stroke-width="0.2" stroke-miterlimit="10" points="115.4,78.6 
					132.2,77.9 132.1,78.1 132.5,78.3 132.6,78.7 132.5,79.1 132,79.5 131.6,80 131.5,80.3 134.1,80.1 133.9,80.3 134,80.6 
					133.9,81 133.4,81.5 133.2,82.4 132.7,83 132.8,83.7 132.7,84.5 132.6,84.6 132.2,84.9 132.2,85.2 131.4,85.8 131.2,86.5 
					131.2,87.3 131.1,87.7 130.4,88.1 130,88.8 129.8,89 129.8,89.6 129.4,90 129.4,90.5 129.2,91.1 128.8,91.7 129,92.4 
					129.3,92.8 129.4,93.3 129.5,93.4 129.5,93.6 129.3,93.8 129.2,94.2 129.2,94.4 117.9,94.8 117.9,92.3 117.3,92.1 116.8,92.4 
					116.6,92.3 116,91.9 116.1,83.7 				"/>
				<text transform="matrix(1.0127 0 0 1 121.708 86.312)" font-family="'Verdana'" font-size="2.5">AR</text>
				
					<text id="NameRegion10" transform="matrix(1.0127 0 0 1 121.708 86.312)" fill="none" stroke="#000000" stroke-width="0.1" stroke-miterlimit="10" font-family="'Verdana'" font-size="2.5">AR</text>
			</g>
			<g id="la">
				<polygon id="LA_Outline" fill="#3E7AAC" stroke="#1A171B" stroke-width="0.2" stroke-miterlimit="10" points="117.9,94.8 
					129.2,94.4 129.2,94.8 129.7,95.8 129.8,96.6 130,97.1 130.2,97.4 130.3,97.8 129.8,98.1 129.7,98.2 129.4,99.2 128.7,100.4 
					128,102.3 128,103.8 135.3,103.4 135.5,103.7 135.3,104.4 135.3,105.4 136.1,106.2 136.3,107.1 135.2,106.8 134.3,106.4 
					134,106.4 133.7,106.5 133,107.1 133,107.5 133.3,107.8 133.7,107.9 134.5,107.9 134.9,107.6 135.2,107.4 135.7,107.4 
					135.9,107.4 136,107.6 135.8,107.7 135.6,108 135.6,108.3 135.9,108.4 136.1,108.5 136.3,108.3 136.7,107.7 137.5,107.4 
					137.8,107.3 137.9,107.3 138.1,107.5 138,107.9 138.1,108 138.1,108.3 137.7,108.5 137.1,109.3 136.5,109.7 136.5,110.2 
					136.7,110.5 137.5,111 138.9,111.5 139.1,111.8 138.9,112.1 138.6,112.2 137.6,112.7 137.5,111.8 136.8,111.5 135.6,111 
					135.5,110.6 135.3,110.5 134.9,110.7 134.7,111.5 134.9,111.6 134.9,111.8 134.3,112.2 134,112.1 133.7,111.7 133.5,111.6 
					133.1,111.8 132.9,111.6 132.7,111.6 132.2,112.2 131.5,112.3 131.3,112.1 130.6,112 129.7,110.8 129.1,110.7 128.5,110.4 
					128.3,110 128.2,110 128.1,110 128.1,109.9 128.1,109.7 127.9,109.6 127.7,109.7 127.3,109.6 127.2,109.5 127.1,109.2 
					126.9,109.2 126.1,109.9 126.4,110.3 126.3,110.5 125.1,110.5 123,110.1 121.8,109.7 119,110.1 118.8,109.9 118.7,109.6 
					118.9,109.5 119,109.2 119.3,108.9 119.6,107.9 119.3,107.4 119.3,107.1 119.4,106.9 119.4,106.6 119.5,106 119.8,105.8 
					120,105.3 120.1,104.5 120.1,104 120,103.3 119.7,102.8 119.5,102.6 119.6,102.4 119.4,102.2 119.2,101.7 119,101.5 
					118.9,101.4 119,100.9 118.7,100.2 118.2,99.7 118,99.4 				"/>
				<text transform="matrix(1.0127 0 0 1 121.708 102.8101)" font-family="'Verdana'" font-size="2.5">LA</text>
				
					<text id="NameRegion9" transform="matrix(1.0127 0 0 1 121.708 102.8101)" fill="none" stroke="#000000" stroke-width="0.1" stroke-miterlimit="10" font-family="'Verdana'" font-size="2.5">LA</text>
			</g>
			<g id="mo">
				<polygon id="MO_Outline" fill="#3E7AAC" stroke="#1A171B" stroke-width="0.2" stroke-miterlimit="10" points="115.4,78.6 
					132.2,77.9 132.1,78.1 132.5,78.3 132.6,78.7 132.5,79.1 132,79.5 131.6,80 131.5,80.3 134.1,80.1 134.3,79.4 134.2,79.2 
					134.4,78.4 134.7,77.7 134.9,77.4 135.4,77.2 135.6,77.3 135.8,77.1 136.1,76 136,75.5 135.8,75.4 135.7,75.3 135.6,75.3 
					135.6,75.1 135.3,75.1 135.3,75.3 135.1,75.4 134.4,74.1 134.4,73.9 134.7,73.7 134.7,73.5 134.3,73.1 134.2,72.3 133.1,71.4 
					132.6,71.2 131.5,70.5 130.9,69.9 130.7,69.4 130.8,69.1 131.5,68.3 131.4,67.7 131.6,67.1 131.4,66.8 130.5,66.4 130.2,66.5 
					129.9,66.8 129.7,66.7 129.1,65 128.8,64.7 127.7,63.9 126.7,62.7 126.6,62.3 126.3,61.6 126.3,60.7 126.4,60.2 126.4,60 
					125.4,58.9 111.1,59.4 111.4,59.8 111.7,60.2 111.9,60.8 112.4,61.4 112.6,61.5 112.5,62 112.6,62.2 114.1,63.3 113.6,63.9 
					113.5,64.5 113.8,64.8 114.2,65 114.4,65.8 114.8,66 115.1,66.1 115.3,66.2 115.4,76.3 				"/>
				<text transform="matrix(1.0127 0 0 1 120.4062 69.6289)" font-family="'Verdana'" font-size="2.5">MO</text>
				
					<text id="NameRegion8" transform="matrix(1.0127 0 0 1 120.4062 69.6289)" fill="none" stroke="#000000" stroke-width="0.1" stroke-miterlimit="10" font-family="'Verdana'" font-size="2.5">MO</text>
			</g>
			<g id="ia">
				<polygon id="IO_Outline" fill="#3E7AAC" stroke="#1A171B" stroke-width="0.2" stroke-miterlimit="10" points="108.7,45.9 
					126.4,45.3 126.6,45.9 127,46.2 127,46.5 126.7,47 126.9,47.6 127.2,48.8 128.3,49.2 128.6,49.5 128.8,49.9 128.9,50.2 
					129.6,50.7 129.7,51.1 130.4,51.5 130.6,52.3 130.6,52.7 130.4,53.2 130.1,53.4 130.1,53.8 129.5,54.5 128.9,54.7 128.7,54.8 
					128,54.9 127.7,55.1 127.4,55.6 127.5,56 127.9,56.4 128,56.7 127.9,57.4 127.4,58.5 126.9,58.9 126.7,59.2 126.7,59.6 
					126.4,60 125.4,58.9 111.1,59.4 111,59.2 110.9,58.7 111,58.3 110.7,57.9 110.6,57.6 110.9,57.2 110.7,56.8 110.2,56.6 
					110.3,55.9 110.5,55.5 110.3,55.1 109.9,54.7 109.7,54.3 109.9,54 109.5,53.6 109.2,52.8 108.9,52.5 109.1,51.9 109.1,51.5 
					108.6,51.2 108.6,50.8 108.6,50.7 108.5,50.2 108.1,49.3 108.5,48.5 108.4,48.1 108.7,47.9 108.5,47.2 108.3,46.9 108.5,46.4 
					108.3,46.2 108.2,45.9 108.5,45.8 				"/>
				<text transform="matrix(1.0127 0 0 1 117.8633 52.6548)" font-family="'Verdana'" font-size="2.5">IA</text>
				
					<text id="NameRegion7" transform="matrix(1.0127 0 0 1 117.8633 52.6548)" fill="none" stroke="#000000" stroke-width="0.1" stroke-miterlimit="10" font-family="'Verdana'" font-size="2.5">IA</text>
			</g>
			<g id="mn">
				<polygon id="MN_Outline" fill="#3E7AAC" stroke="#1A171B" stroke-width="0.2" stroke-miterlimit="10" points="108.7,45.9 
					108.7,37.4 107.5,36.3 107.5,35.9 108.1,35.3 108.3,34.8 108.2,34.4 108.2,33.7 108.3,33.1 107.7,31.4 107.7,31.1 107.7,30.2 
					107.5,29.8 107.5,27.4 107.2,26.1 106.8,25.7 106.5,24.2 106.5,22.9 106.6,22.1 106.7,21.8 106.4,20.7 106.3,20.3 112.7,20.3 
					112.7,19.2 112.8,18.6 113.3,18.6 114,18.9 114,19.9 114.2,20.6 114.2,21.2 114.9,21.7 115.1,21.6 115.6,21.7 115.8,21.9 
					116.4,21.9 117,22 117.1,22.2 117.1,22.4 118,22.3 118.3,22 119.7,21.9 120.6,22.2 120.8,22.2 120.7,22.4 121,22.7 121.1,22.6 
					121.3,22.7 121.4,23.4 121.7,23.5 122.1,23.1 122.3,23 122.7,23.1 122.9,23.5 123.6,23.7 123.8,24 124.2,24.3 124.6,24.3 
					125.1,24.2 126.3,23.3 126.5,23.4 126.9,23.8 128.7,23.8 129,23.9 129.2,24 129.7,24.3 130.1,24.2 130.9,24.1 130.4,24.6 
					129.4,25.2 128.8,25.3 128.3,25.5 127.8,26 126.9,26.4 126.5,26.7 124.9,28.4 122.7,30.4 122.5,30.7 122.2,30.9 122.3,33.4 
					122.1,33.7 121.8,33.9 120.8,34.6 120.8,35 120.7,35.2 120.4,35.8 120.9,36.1 121.3,36.7 121,37.2 121,37.7 120.9,38.5 
					120.9,39.7 121.1,40 121.5,40.2 121.5,40.4 122.4,40.6 122.6,40.7 122.6,40.9 122.8,41 123.9,41.5 124.2,42.2 125.1,42.9 
					126.2,43.6 126.3,43.9 126.3,44.5 126.4,45.3 				"/>
				<text transform="matrix(1.0127 0 0 1 112.5947 33.1875)" font-family="'Verdana'" font-size="2.5">MN</text>
				
					<text id="NameRegion6" transform="matrix(1.0127 0 0 1 112.5947 33.1875)" fill="none" stroke="#000000" stroke-width="0.1" stroke-miterlimit="10" font-family="'Verdana'" font-size="2.5">MN</text>
			</g>
			<g id="wi">
				<polygon id="WI_Outline" fill="#3E7AAC" stroke="#1A171B" stroke-width="0.2" stroke-miterlimit="10" points="128.8,49.9 
					128.6,49.5 128.3,49.2 127.2,48.8 126.9,47.6 126.7,47 127,46.5 127,46.2 126.6,45.9 126.4,45.3 126.3,44.5 126.3,43.9 
					126.2,43.6 125.1,42.9 124.2,42.2 123.9,41.5 122.8,41 122.6,40.9 122.6,40.7 122.4,40.6 121.5,40.4 121.5,40.2 121.1,40 
					120.9,39.7 120.9,38.5 121,37.7 121,37.2 121.3,36.7 120.9,36.1 120.4,35.8 120.7,35.2 120.8,35 120.8,34.6 121.8,33.9 
					122.1,33.7 122.3,33.4 122.2,30.9 122.5,30.7 122.7,30.4 123.1,30.6 123.5,30.6 124.1,30.6 124.9,30.1 126.6,29.3 126.9,29.2 
					127,29.4 127,29.8 126.9,30 126.9,30.2 126.7,30.9 127.3,30.6 127.6,30.6 128,30.9 128.4,30.9 128.6,31.1 129.1,31.2 
					129.3,31.4 129.4,31.9 129.7,32 132.7,32.6 133.1,32.6 133.8,33.2 134.2,33.2 134.4,33.3 134.5,33.2 134.7,33.2 135.5,33.3 
					136,33.5 136.2,33.7 136.1,33.8 136.1,33.9 136.6,34.1 137.2,34.4 137.2,34.8 137.1,36 137.2,36 137.8,35.9 137.8,36 
					137.8,36.2 137.6,36.4 137.7,36.9 138.2,37.2 138.2,37.3 137.5,38 137,38.9 136.9,39.5 136.8,39.8 137,39.9 137.5,39.6 
					138,38.6 138.6,38.1 138.9,38 139,37.7 139.2,37.5 139.4,37.2 139.3,36.9 139.4,36.6 139.5,36.5 139.7,36.2 139.8,36.1 
					140,36.1 140.1,36.2 140,36.8 139.6,38 139.3,38.3 139.2,38.7 139.2,39 138.8,39.9 138.8,40.8 138.8,41.3 138.3,41.8 
					138.2,42.1 138.4,42.7 138.4,43.8 138.2,44.1 137.8,45.3 138.1,47 138.5,48.1 138.4,48.3 138.5,48.6 138.5,48.8 138.5,49.3 				
					"/>
				<text transform="matrix(1.0127 0 0 1 130.2627 40.647)" font-family="'Verdana'" font-size="2.5">WI</text>
				
					<text id="NameRegion5" transform="matrix(1.0127 0 0 1 130.2627 40.647)" fill="none" stroke="#000000" stroke-width="0.1" stroke-miterlimit="10" font-family="'Verdana'" font-size="2.5">WI</text>
			</g>
			<g id="nj">
				<polygon id="NJ_Outline" fill="#3E7AAC" stroke="#1A171B" stroke-width="0.2" stroke-miterlimit="10" points="183.6,55.2 
					183.3,56 183.3,56.1 183.5,56.1 183.7,56.5 184,56.8 184.3,57.1 185.1,57.6 185.4,57.6 186,57.7 186.2,57.8 186.2,58.3 
					186.2,58.7 186.4,58.9 186.6,58.6 186.9,58.1 186.9,57.6 187.3,56.9 187.5,56.4 188,55.6 188.2,55.1 188.5,54.6 188.5,54.2 
					188.4,52.7 188.2,51.5 187.9,51.1 187.4,51.2 187.2,51.4 187.1,51.3 187,51.2 186.8,51.3 186.8,51.3 186.8,51.1 187,50.5 
					187.2,50.4 187.4,50.3 187.4,49.8 187.4,49.5 187.6,49.3 187.8,49.1 187.6,48.6 184.5,47.6 184.3,47.6 184.1,48 184.1,48.3 
					184,48.9 183.5,49.3 183.5,49.5 183.5,49.6 183.7,49.9 183.8,50.4 183.6,50.5 183.6,51.4 183.7,51.5 184.1,51.5 184.3,52.1 
					184.7,52.2 184.8,52.3 185.1,52.4 185.3,52.7 185.8,53 185.7,53.1 185.2,53.5 184.6,54 184.5,54.5 				"/>
				<text transform="matrix(1.0127 0 0 1 185.0918 55.4814)" font-family="'Verdana'" font-size="2.5">NJ</text>
				
					<text id="NameRegion4" transform="matrix(1.0127 0 0 1 185.0918 55.4814)" fill="none" stroke="#000000" stroke-width="0.1" stroke-miterlimit="10" font-family="'Verdana'" font-size="2.5">NJ</text>
			</g>
			<g id="vt">
				<polygon id="VT_Outline" fill="#3E7AAC" stroke="#1A171B" stroke-width="0.2" stroke-miterlimit="10" points="184.9,30 
					185.2,30.4 185.1,30.6 185.3,30.9 185.3,31 185.8,32.4 186,33.3 185.8,33.8 185.8,34.3 186.4,35.6 186.3,36.2 186.4,36.4 
					186.5,36.4 186.5,36.2 186.7,36.2 187.1,36.8 187.3,38 187.3,38.6 187.5,39.4 187.9,40.1 190.5,39.6 190.4,39.3 190.1,39 
					190.1,38.6 190.2,38.4 190.1,38 189.9,36.1 189.9,35.5 190.1,34.4 190.3,33.7 190.4,33.2 190.2,32.8 190.2,32.3 190.3,32.1 
					191,31.4 191.4,30.4 191,29.8 191,29.5 191.1,29.4 191.1,29.2 190.9,28.5 				"/>
				<text transform="matrix(1.0127 0 0 1 186.4355 33.6255)" font-family="'Verdana'" font-size="2.5">VT</text>
				
					<text id="NameRegion3" transform="matrix(1.0127 0 0 1 186.4355 33.6255)" fill="none" stroke="#000000" stroke-width="0.1" stroke-miterlimit="10" font-family="'Verdana'" font-size="2.5">VT</text>
			</g>
			<g id="nh">
				<polygon id="NH_Outline" fill="#3E7AAC" stroke="#1A171B" stroke-width="0.2" stroke-miterlimit="10" points="195.8,37.6 
					195.6,37.5 195.4,37.6 195.1,38 194.7,38.1 194.8,38.4 194.7,38.5 194.6,38.4 194.5,38.5 194.5,38.7 190.5,39.6 190.4,39.3 
					190.1,39 190.1,38.6 190.2,38.4 190.1,38 189.9,36.1 189.9,35.5 190.1,34.4 190.3,33.7 190.4,33.2 190.2,32.8 190.2,32.3 
					190.3,32.1 191,31.4 191.4,30.4 191,29.8 191,29.5 191.1,29.4 191.1,29.2 190.9,28.5 191.1,27.6 190.9,27.3 190.9,27.2 
					191.2,27.2 191.3,26.9 191.5,27 191.8,27 192,26.8 194.6,34.6 194.7,34.8 194.6,35.1 194.7,35.3 195.3,35.8 195.5,35.8 
					195.5,36.1 195.5,36.2 195.9,36.9 195.8,37 195.8,37.3 				"/>
				<text transform="matrix(1.0127 0 0 1 190.5244 36.8633)" font-family="'Verdana'" font-size="2.5">NH</text>
				
					<text id="NameRegion2" transform="matrix(1.0127 0 0 1 190.5244 36.8633)" fill="none" stroke="#000000" stroke-width="0.1" stroke-miterlimit="10" font-family="'Verdana'" font-size="2.5">NH</text>
			</g>
			<g id="de">
				<polygon id="DE_Outline" fill="#3E7AAC" stroke="#1A171B" stroke-width="0.2" stroke-miterlimit="10" points="186.4,61.1 
					186.4,60.6 186.1,60 185.7,59.5 185,59.1 184.8,58.8 184.6,58.5 184.1,57.6 183.9,57.3 183.5,56.8 183.3,56.5 183.3,56.2 
					183.3,56.1 183.3,56 183.6,55.2 183.3,55.1 182.9,55.1 182.5,55.5 182.5,55.7 182.4,55.8 182.3,55.9 184.1,61.6 				"/>
				<text transform="matrix(1.0127 0 0 1 186.4355 60.9609)" font-family="'Verdana'" font-size="2.5">DE</text>
				
					<text id="NameRegion1" transform="matrix(1.0127 0 0 1 186.4355 60.9609)" fill="none" stroke="#000000" stroke-width="0.1" stroke-miterlimit="10" font-family="'Verdana'" font-size="2.5">DE</text>
			</g>
			<g id="dc">
				<polygon id="DC_Outline" fill="#3E7AAC" stroke="#1A171B" stroke-width="0.2" stroke-miterlimit="10" points="178.2,60.7 
					178.9,60.2 179.5,61.1 178.7,61.6 				"/>
				<text transform="matrix(1.0127 0 0 1 186.8135 67.5781)" font-family="'Verdana'" font-size="2.5">DC</text>
				
					<text id="NameRegion0" transform="matrix(1.0127 0 0 1 186.8135 67.5781)" fill="none" stroke="#000000" stroke-width="0.1" stroke-miterlimit="10" font-family="'Verdana'" font-size="2.5">DC</text>
				
					<line id="_x3C_DC_Path_x3E_" fill="none" stroke="#000000" stroke-width="0.2" stroke-miterlimit="10" x1="186.8" y1="67" x2="179" y2="61"/>
			</g>
		</g>
		<g id="Header">
			<text transform="matrix(1 0 0 1 47.6698 4.4096)" font-family="'Verdana'" font-size="5.1064">State DOT Usage of NTPEP - Fall 2013 Survey Results</text>
		</g>
	</g>
	<g id="MultiExporter_Props" display="none">
		<text transform="matrix(1 0 0 1 2.3544 231.9096)" display="inline" font-family="'MyriadPro-Regular'" font-size="4.8377">&lt;prefs&gt;</text>
	</g>
	<g>
		<path id="HI_x5F_Outline" fill="#3E7AAC" stroke="#000000" stroke-width="0.1" d="M51.9,113l0.4-0.8l0.5-0.1l0.1,0.2l-0.5,0.7
			H51.9z M54.2,112.2l1.4,0.6l0.5-0.1l0.4-0.9l-0.1-0.8l-0.9-0.1l-0.9,0.4L54.2,112.2z M61.1,114.4l0.8,1.2l0.5-0.1l0.3-0.1l0.3,0.3
			l0.8,0l0.2-0.3l-0.7-0.4l-0.4-0.8l-0.5-0.8l-1.3,0.7L61.1,114.4z M65.6,116.4l0.3-0.4l1,0.2l0.1-0.1l1.4,0.1l-0.1,0.3l-0.6,0.3
			l-1-0.1L65.6,116.4L65.6,116.4z M66.8,117.5l0.4,0.9l0.7-0.3l0.1-0.4l-0.4-0.5l-0.8-0.1L66.8,117.5L66.8,117.5z M68.3,117.3
			l0.5-0.7l1,0.5l1,0.3l1,0.6v0.4l-0.8,0.4l-1.1,0.2l-0.5-0.3L68.3,117.3z M72.1,120.8l0.4-0.3l0.8,0.4l1.7,0.8l0.8,0.5l0.4,0.5
			l0.4,1l0.9,0.6l-0.1,0.3l-0.9,0.7l-0.9,0.3l-0.3-0.1l-0.7,0.4l-0.5,0.7l-0.5,0.7l-0.4,0l-0.8-0.6l-0.1-1l0.1-0.5l-0.4-1.3
			l-0.5-0.4l0-0.6l0.5-0.2l0.5-0.7l0.1-0.2l-0.4-0.4L72.1,120.8L72.1,120.8z"/>
		<path id="AK_x5F_Outline" fill="#3E7AAC" stroke="#000000" stroke-width="0.1" d="M35.7,97.4l-0.1,19.1l0.4,0.2l0.7,0l0.3-0.3h0.6
			l0,0.7l1.6,1.5l0.1,0.6l0.8-0.4l0.1,0l0.1-0.7l0.3-0.4l0.3,0l0.4-0.3l0.7,0.5l0.1,0.7l0.4,0.3l0.3,0.5l0.9,0.4l0.8,1.3l0.6,0.9
			l0.5,0.6l0.3,0.8l1.1,0.4l1.2,0.5l0.2,1l0.1,0.7l-0.2,0.8l-0.4,0.5l-0.4-0.2l-0.3-0.7l-0.6-0.3l-0.4-0.3l-0.2,0.2l0.3,0.6l0,0.8
			l-0.3,0.1l-0.4-0.4l-0.5-0.3l0.1,0.4l0.3,0.4l-0.2,0.2c0,0-0.2-0.1-0.3-0.2c-0.1-0.1-0.5-0.8-0.5-0.8l-0.2-0.5
			c0,0-0.1,0.3-0.2,0.2s-0.3-0.3-0.3-0.3l0.4-0.4l-0.3-0.3v-1.1h-0.2l-0.2,0.8l-0.3,0.1l-0.2-0.8l-0.1-0.8l-0.2-0.1l0.1,1.3v0.3
			l-0.3-0.3l-0.8-1.3l-0.5-0.1l-0.1-0.8l-0.4-0.7l-0.4-0.3v-0.5l0.5-0.3l-0.1-0.1l-0.6,0.1l-0.8-0.5l-0.6-0.7l-1.1-0.6l-0.9-0.6
			l0.3-0.7v-0.4l-0.4,0.4l-0.7,0.3l-0.8-0.3l-1.3-0.5h-1.2l-0.1,0.1l-1.4-0.9l-0.5-0.1l-0.6-1.3l-0.8,0.1l-0.8,0.3l0.1,1l0.3-0.7
			l0.2,0.1l-0.3,1l0.7-0.6l0.1,0.4l-0.9,1l-0.3-0.1l-0.1-0.4l-0.3-0.2l-0.3,0.3l-0.6-0.4l-0.7,0.5l-0.4,0.5l-0.8,0.5l-1,0l-0.1-0.5
			l0.8-0.1V117l-0.5-0.1l0.2-0.5l0.5-0.9V115l0-0.2l1-0.5l0.2,0.3h0.6l-0.3-0.6L26,114l-1.1,0.6l-0.5,0.8l-0.4,0.6l-0.3,0.5
			l-0.9,0.3l-0.7,0.6l-0.1,0.4l0.5,0.2l0.2,0.5l-0.6,0.7l-1.4,0.9l-1.7,0.9l-0.5,0.3l-1.2,0.3L16,122l0.4,0.3l-0.3,0.3l-0.1,0.3
			l-0.6-0.2l-0.7,0l-0.2,0.5h-0.2l0.1-0.5l-0.8,0.3l-0.7,0.2l-0.8-0.3l-0.7,0.4h-0.7l-0.5,0.3l-0.4,0.2l-0.5-0.1l-0.6-0.3l-0.5,0.1
			l-0.2,0.2l-0.4-0.3v-0.4l0.7-0.3l1.4,0.1l1-0.4l0.5-0.5l0.7-0.1l0.4-0.2l0.6,0l0.4,0.3l0.2-0.1l0.5-0.6l0.7-0.2l0.8-0.1l0.3-0.1
			l0.1,0.1h0.2l0.3-0.8l0.9-0.3l0.4-0.8l0.5-1l0.4-0.3l0.1-0.6l-0.4,0.3l-0.8,0.1l-0.1-0.5l-0.3-0.1l-0.2,0.2l0,0.7l-0.3,0l-0.3-1.3
			l-0.3,0.3l-0.3-0.1l-0.1-0.4l-0.9,0l-0.5,0.3l-0.6-0.1l0.3-0.3l0.1-0.6l-0.1-0.4l0.3-0.2l0.3,0l-0.1-0.4v-1l-0.2-0.2l-0.2,0.3
			h-1.4l-0.3-0.3l-0.1-0.9l-0.5-0.8v-0.2l0.5-0.2l0-0.5l0.3-0.3l-0.2-0.1l-0.3,0.1l-0.3-0.6l0.2-1.1l1-0.7l0.6-0.4L14,107l0.6-0.3
			l0.6,0.3l0.1,0.5l0.5-0.1l0.7-0.5l0.4,0.1l0.2,0.1h0.4l0.5-0.3l0.2-1c0,0,0.1-0.7,0.2-0.8c0.1-0.1,0.2-0.2,0.2-0.2l-0.3-0.4
			l-0.6,0.2l-0.7,0.2l-0.4-0.1l-0.8-0.4l-1.1,0l-0.8-0.8l0.1-0.9l0.1-0.5l-0.5-0.4l-0.4-0.8l0.1-0.2l1.5-0.1h0.5l0.2,0.2h0.1l0-0.4
			l0.9-0.1l0.6,0.1l0.3,0.3l-0.3,0.5l-0.1,0.3l0.6,0.4l1.1,0.4l0.4-0.2l-0.5-1l-0.2-0.7l0.2-0.2l-0.8-0.4l-0.1-0.3l0.1-0.4l-0.2-0.9
			L17,97l-0.5-0.9l0.7-0.4h0.7l0.4,0.1l0.9,0L20,95l0.3-0.7l0.8-0.5l0.4,0.2l0.6-0.1l0.8-0.5l0.3,0l0.2,0.2l1,0l0.6-0.7h0.3l0.8,0.5
			l0.4,0.5L26.4,94l0.1,0.3l0.4-0.4l0.9,0.1l0.1,0.8l0.4,0.3l1.6,0.1l1.4,0.9l0.3-0.2l1.2,0.6l0.5-0.1l0.4-0.2l1.1,0.4L35.7,97.4
			L35.7,97.4z M10,103.8l0.5,1.2l0,0.2l-0.7-0.1l-0.4-0.9l-0.4-0.3H8.4l0-0.6l0.4-0.5l0.3,0.5l0.3,0.3L10,103.8z M9.4,111.3l0.8,0.2
			l0.8,0.2l0.2,0.2l-0.4,0.8l-0.7,0l-0.8-0.8L9.4,111.3z M4.7,108.2l0.3,0.6l0.3,0.4L5,109.3l-0.5-0.7v-0.4H4.7L4.7,108.2z
			 M1.7,124.5l0.8-0.5l0.8-0.2l0.6,0.1l0.1,0.4l0.4,0.1l0.4-0.4l-0.1-0.4l0.6-0.1l0.7,0.6l-0.3,0.4l-1,0.3l-0.6-0.1l-0.8-0.3l-1,0.3
			l-0.4,0.1L1.7,124.5L1.7,124.5z M12.6,123.5L13,124l0.5-0.4l-0.3-0.3L12.6,123.5z M13.3,124.2l0.3-0.5l0.5,0.1l-0.2,0.4
			L13.3,124.2L13.3,124.2z M18.6,123.8l0.3,0.4l0.2-0.3l-0.2-0.4L18.6,123.8z M20.5,121l0.3,1.3l0.7,0.2l1.1-0.7l1-0.6l-0.4-0.5
			l0.1-0.5l-0.5,0.3l-0.7-0.2l0.4-0.3l0.4,0.2l0.9-0.4l0.1-0.3l-0.5-0.2l0.2-0.4l-0.6,0.4l-1,0.8l-1.1,0.7L20.5,121L20.5,121z
			 M30,116.5l0.5-0.3l-0.2-0.4l-0.4,0.2L30,116.5z"/>
		<path id="path57" fill="none" stroke="#A9A9A9" stroke-width="0.1" stroke-miterlimit="10" d="M47.6,106.2v12.3l8.1,10.1 M0,90.9
			h32.5l15.1,15.2H67l12,12.1v10.3"/>
		<text transform="matrix(1.0127 0 0 1 72.6968 124.7153)" font-family="'Verdana'" font-size="2.5">HI</text>
		
			<text transform="matrix(1.0127 0 0 1 72.6968 124.7153)" fill="none" stroke="#000000" stroke-width="0.1" stroke-miterlimit="10" font-family="'Verdana'" font-size="2.5">HI</text>
		<text transform="matrix(1.0127 0 0 1 25.0757 108.1436)" font-family="'Verdana'" font-size="2.5">AK</text>
		
			<text id="AK_1_" transform="matrix(1.0127 0 0 1 25.0757 108.1436)" fill="none" stroke="#000000" stroke-width="0.1" stroke-miterlimit="10" font-family="'Verdana'" font-size="2.5">AK</text>
	</g>
</g>
<g id="Layer_1_3_">
</g>
</svg>
